<?xml version="1.0" standalone="no"?>
<!DOCTYPE svg PUBLIC "-//W3C//DTD SVG 1.1//EN" "http://www.w3.org/Graphics/SVG/1.1/DTD/svg11.dtd" >
<svg>
<metadata>
Created by FontForge 20120731 at Thu Oct  3 02:20:49 2019
 By www-data
Typeface (c) Danh Hong. 2010. All Rights Reserved
</metadata>
<defs>
<font id="KhmerOSMoul" horiz-adv-x="0" >
  <font-face 
    font-family="Khmer OS Moul"
    font-weight="400"
    font-stretch="normal"
    units-per-em="2048"
    panose-1="2 0 5 0 0 0 0 0 0 0"
    ascent="1638"
    descent="-410"
    bbox="-3796 -1200 5280 2501"
    underline-thickness="150"
    underline-position="-142"
    unicode-range="U+0020-17E9"
  />
<missing-glyph horiz-adv-x="1536" 
d="M256 0v1280h1024v-1280h-1024zM288 32h960v1216h-960v-1216z" />
    <glyph glyph-name="uni17D2_uni1780.zz02" unicode="&#x17d2;&#x1780;" 
d="M-514 -431q16 -25 55 -30v65zM-1100 -226q110 176 323 176q1 0 2 -1q170 0 298 -49t128 -115v-259q0 -98 -37 -154q-36 -57 -109 -74q-51 0 -135 66q-79 61 -79 121v9q6 64 60 97l162 76q-41 20 -118 37q-76 16 -205 16q-220 0 -290 -100v-74q0 -123 -38 -184
q-37 -62 -112 -62q-100 0 -180 88q-70 88 -70 177q50 -65 150 -65q75 0 112 17q38 17 38 52v40q0 60 -50 60t-50 -80q-75 0 -112 37q-38 38 -38 113q0 80 45 120t135 40q85 0 128 -31q42 -32 42 -94z" />
    <glyph glyph-name="uni17D2_uni1781.zz02" unicode="&#x17d2;&#x1781;" 
d="M-1450 -252q0 68 139 135q140 67 440 67q192 0 356.5 -58.5t164.5 -101.5q0 -53 -181 -143q-180 -89 -532 -124q54 -21 258 -21q126 0 259 44q124 47 124 84q0 3 -1 7q73 -25 73 -85q0 -86 -126 -169q-127 -83 -387 -83q-294 0 -440 65q-147 65 -147 133q0 67 140 73
t376 41q235 35 235 89q0 46 -248 49q-190 0 -247 -24q-42 -18 -42 -38q0 -7 5 -15l30 -29q-70 -24 -119 -24q-44 0 -72 20q-58 42 -58 108z" />
    <glyph glyph-name="uni17D2_uni1782.zz02" unicode="&#x17d2;&#x1782;" 
d="M-514 -431q16 -25 55 -30v65zM-1449 -435q0 188 147 285q145 98 441 98q3 0 6 -1q210 0 358 -48t148 -114v-259q0 -98 -37 -154q-36 -57 -109 -74q-79 0 -149 66q-65 60 -65 119v11q6 64 60 97l162 76q-41 20 -118 37q-76 16 -265 16q-216 0 -324 -61q-109 -62 -109 -114
q0 -26 37 -37q66 85 143 116.5t150 31.5q147 0 147 -114q0 -113 -143 -113h-3q-1 101 -82 101q-45 0 -58 -50q-2 -8 -2 -14q0 -37 68 -37q-37 -130 -148 -130q-108 0 -181.5 63.5t-73.5 202.5z" />
    <glyph glyph-name="uni17D2_uni1784.zz02" unicode="&#x17d2;&#x1784;" 
d="M-1450 -380q0 115 62 172q63 58 188 58q75 0 112 -35q38 -35 38 -105q0 -55 -37 -82q-37 -28 -112 -28q0 90 -45 90t-45 -45q0 -47 60 -71t180 -24q275 0 437 100t212 300q45 0 45 -68q0 -8 -1 -18q-18 -258 -193 -411t-500 -153q-201 0 -301 80t-100 240z" />
    <glyph glyph-name="uni17D2_uni1785.zz02" unicode="&#x17d2;&#x1785;" 
d="M-1450 -350q101 0 226 18q124 19 124 82q0 50 -24 62q-9 4 -21 4q-22 0 -55 -16q0 75 38 112q37 38 112 38t112 -32q38 -33 38 -98q0 -76 -62 -131t-187 -89q0 -50 219 -50q336 0 375 64q-97 16 -146 58q-49 41 -49 108q0 85 50 128q50 42 150 42t150 -50t50 -150
q-4 -42 -9 -70h16q171 -15 257 -55t86 -105q0 -60 -62 -90q-63 -30 -188 -30q50 50 50 100q0 60 -184 84q-52 -142 -188 -212q-136 -72 -357 -72q-261 0 -391 87t-130 263zM-517 -300q7 20 7 44v6q0 50 -40 50q-50 0 -50 -40t83 -60z" />
    <glyph glyph-name="uni17D2_uni1786.zz02" unicode="&#x17d2;&#x1786;" 
d="M-1206 -422q19 -44 86 -49v49h-86zM-681 -700q-129 0 -175 59.5t-71 139.5q-25 79 -83 79v-62q0 -93 -48 -147t-134 -70q-61 0 -159 62.5t-99 247.5q0 62 147 62h183q-36 62 -178 62q-119 0 -152 -31v248l86 -1q129 0 241.5 -34.5t112.5 -109.5v-134q66 0 116.5 -32.5
t86.5 -97.5q24 -43 125 -43q108 0 164 49q57 50 57 124q0 62 -37 62q-36 0 -36 -16q0 -15 36 -15q-36 -93 -113 -93q-90 0 -135 38q-45 39 -45 117q0 77 55 116q55 38 165 38q74 0 147 -61q73 -62 73 -185q0 -171 -95 -272q-95 -100 -235 -100z" />
    <glyph glyph-name="uni17D2_uni1787.zz02" unicode="&#x17d2;&#x1787;" 
d="M-1450 -51h110q195 0 278 -57q82 -57 82 -138q0 -120 -93 -169q82 -38 300 -38q152 0 258 68q105 78 164 235q0 -291 -130 -421t-390 -130q-323 0 -451 90q-128 89 -128 205q14 30 37 30q124 0 201 21t77 50q0 30 -91 33h-17q-86 0 -207 -26v247z" />
    <glyph glyph-name="uni17D2_uni1789.zz02" unicode="&#x17d2;&#x1789;" 
d="M-150 -310q0 -170 -103 -255t-309 -85q-293 0 -473 100q-181 100 -335 100q-123 0 -280 -100q47 150 145 225t247 75q217 0 423 -125q207 -125 413 -125q69 0 104 38q35 37 35 112q0 100 -58 100q-61 0 -61 -100q-100 0 -150 38q-50 37 -50 112t51 112q52 38 154 38
q124 0 185 -65q62 -65 62 -195z" />
    <glyph glyph-name="uni17D2_uni178A.zz02" unicode="&#x17d2;&#x178a;" 
d="M-515 -431q17 -25 55 -30v65zM-1450 -409q1 162 147 260.5t422 98.5q275 0 403 -49.5t128 -115.5v-259q0 -97 -37 -153q-36 -57 -109 -74q-52 1 -136 66q-78 61 -78 121v9q6 64 61 96l162 77q-42 20 -119 36q-76 17 -265 17q-227 0 -340.5 -33t-113.5 -100q0 -55 77 -55
q-12 23 -12 43q0 27 25 47q42 33 115 33t128 -51q55 -50 55 -129t-39 -127.5t-167 -48.5q-124 0 -215 83q-92 82 -92 208z" />
    <glyph glyph-name="uni17D2_uni178B.zz02" unicode="&#x17d2;&#x178b;" 
d="M-1500 -380q101 30 213 80q-107 2 -160 40t-53 110q0 75 50 112q50 38 150 38t150 -50t50 -150h550v100q0 100 100 100t100 -100q0 -50 -50 -50q-47 0 -50 45v-95h150q200 0 250 -50q0 -50 -200 -150q0 100 -50 100h-133q25 -53 83 -150q-24 -124 -112 -187
q-88 -62 -238 -62h-2q-49 0 -123 59l-75 60l-70 -60q-69 -60 -129 -60q-311 99 -401 320zM-500 -400q-36 60 -49 100h-571q-25 -54 -99 -80q40 -50 170 -100q50 0 230 130q159 -130 209 -130q61 0 110 80zM-1400 -150q0 -50 125 -50h45q-1 100 -70 100q-100 0 -100 -50z" />
    <glyph glyph-name="uni17D2_uni178C.zz02" unicode="&#x17d2;&#x178c;" 
d="M-1460 -489q43 29 158.5 35.5t419.5 84.5t304 106q-87 30 -182 30q-105 0 -216 -58q-158 58 -229 58q-75 0 -85 -37v-20q0 -19 31 -19q30 0 38 8q3 3 3 6q0 8 -28 8v1q0 29 63 29q131 0 131 -74q0 -64 -185 -64q-106 0 -164 42q-59 42 -59 109q0 107 265 194
q181 -30 291 -107q87 85 186 107q99 -9 234.5 -55.5t135.5 -94.5q0 -62 -65 -105q-65 -44 -260 -104q-194 -60 -414 -103q14 -22 58.5 -32t157.5 -10q94 0 228 48t184 132q111 0 111 -52v-193q-1 -122 -130 -122q-130 0 -130 87q148 35 149 77v45l-74 -47
q-186 -122 -505 -122q-185 0 -303.5 67.5t-118.5 144.5z" />
    <glyph glyph-name="uni17D2_uni178E.zz02" unicode="&#x17d2;&#x178e;" 
d="M-457 -450q0 -30 88 -54v97zM-2562 -700q-377 0 -381 173v87q21 -7 80 -7q54 0 140 6q179 13 179 43q0 22 -143 22q-145 0 -256 -22v241q27 18 199 61.5t371 43.5q265 0 514 -53q247 -54 247 -100q0 -106 -155 -193l-155 -86q43 -36 96.5 -51t117.5 -15q73 0 122 30
l63 41l42 -22q41 -23 91 -35q62 -14 162 -14q99 0 148 22.5t49 66.5q-22 18 -94 30q-71 12 -216 12h-93v262q26 18 112 40l86 21q173 44 336 44q168 0 416 -49t248 -114v-334q0 -64 -44 -99t-133 -52q-61 0 -186 54.5t-125 164.5q35 19 115 51l160 65q80 32 80 54
q0 30 -289 73q-288 43 -352 43q-65 0 -142 -15t-148 -58h44q178 0 265 -43q89 -43 89 -129q0 -110 -133 -185t-257 -75q-98 0 -188 33l-90 33q-86 -66 -179 -66q-218 0 -373 60q-155 59 -155 154q16 28 44 28q213 0 350 91q51 33 51 60q0 9 -7 18q-26 33 -146 54
q-239 40 -392 40t-275 -15t-157 -37q59 3 108 3q144 0 207 -28q83 -39 83 -104v-1q0 -85 -154 -106q-155 -22 -155 -42q0 -23 46 -23h6q30 0 30 10q0 11 -41 11q39 22 114 22t114.5 -26.5t39.5 -61.5q0 -48 -51 -77.5t-100 -29.5z" />
    <glyph glyph-name="uni17D2_uni178F.zz02" unicode="&#x17d2;&#x178f;" 
d="M-515 -431q17 -25 55 -30v65zM-1450 -409q1 162 147 260.5t422 98.5q275 0 403 -49.5t128 -115.5v-259q0 -97 -37 -153q-36 -57 -109 -74q-52 1 -136 66q-78 61 -78 121v9q6 64 61 96l162 77q-42 20 -119 36q-76 17 -265 17q-227 0 -340.5 -33t-113.5 -100q0 -55 77 -55
q-12 23 -12 43q0 27 25 47q42 33 115 33t128 -51q55 -50 55 -129t-39 -127.5t-167 -48.5q-124 0 -215 83q-92 82 -92 208z" />
    <glyph glyph-name="uni17D2_uni1790.zz02" unicode="&#x17d2;&#x1790;" 
d="M-1550 -450q0 175 110 262q110 88 330 88q210 0 389 -84t286 -251q125 -165 185 -165q90 0 150 50q0 -75 -38 -112q-37 -38 -112 -38q-135 0 -239 46q-103 46 -176 139q-87 107 -209 161q-121 54 -236 54q-170 0 -255 -38q-85 -37 -85 -112q0 -120 80 -120q70 0 70 120
q100 0 150 -31t50 -94t-38 -94q-37 -31 -112 -31q-150 0 -225 62q-75 63 -75 188z" />
    <glyph glyph-name="uni17D2_uni1791.zz02" unicode="&#x17d2;&#x1791;" 
d="M-1450 -51h110q110 0 219 -34q110 -33 110 -146q0 -112 -103 -183q14 -59 69 -59q62 0 176 130t275 130q91 0 166 -58t75 -180t-64 -185q-64 -64 -155 -64q-92 0 -138 32q-45 33 -45 98t37 97q36 33 109 33q0 -33 37 -33q36 0 36 29q0 88 -109 88q-95 0 -163 -86l-68 -86
q-135 -172 -208 -172q-110 0 -238 90q-128 88 -128 217q14 18 37 18q175 0 234 24q58 24 58 59q0 33 -87 33t-242 -19v227z" />
    <glyph glyph-name="uni17D2_uni1792.zz02" unicode="&#x17d2;&#x1792;" 
d="M-1450 -375q47 0 368 70q90 24 90 51q0 49 -30 49q-31 0 -61 -28q0 92 45 137q46 46 138 46t138 -35q45 -35 45 -104q0 -57 -64 -101.5t-191 -77.5l-248 -62q32 -42 78 -63t105 -21q46 0 87 45l83 106q41 35 87 35q33 0 62 -35l60 -69q33 -35 79 -35t69 35q22 34 22 104
q0 79 -45 148q-46 70 -138 130q161 0 241 -70q80 -69 80 -208q0 -186 -57 -278q-58 -93 -172 -93q-138 0 -183 46l-92 93q-137 -140 -228 -140q-170 0 -269 124t-99 201z" />
    <glyph glyph-name="uni17D2_uni1793.zz02" unicode="&#x17d2;&#x1793;" 
d="M-1206 -410q19 -47 86 -52v52h-86zM-680 -699q-170 0 -205.5 60t-50.5 144.5t-74 84.5v-65q0 -96 -48 -152t-134 -73q-56 0 -156.5 65t-101.5 257q37 64 183 64h147q0 64 -146 64q-124 0 -184 -32v231h110q147 0 239 -30q91 -30 91 -135v-98q66 0 117 -34t80.5 -74
t131.5 -40q122 0 190 51.5t68 231.5q73 -32 73 -135q0 -144 -95.5 -264.5t-234.5 -120.5z" />
    <glyph glyph-name="uni17D2_uni1795.zz02" unicode="&#x17d2;&#x1795;" 
d="M-1450 -51h110q165 0 248 -57q82 -57 82 -138q0 -129 -103 -168q14 -28 47 -44.5t84 -16.5t92 45l53 62l34 -33q34 -34 86 -54q51 -20 97 -20t102 40q57 40 57 98q0 59 -37 59q-36 0 -36 -16q0 -17 36 -17q-36 -64 -119 -64q-84 0 -129 34t-45 95q0 81 55 122t165 41
q74 0 147 -65t73 -188q0 -152 -110 -258t-190 -106q-66 0 -141 49l-74 49q-71 -98 -148 -98q-180 0 -308 90q-128 88 -128 217q14 18 37 18q124 0 201 21t77 55t-91 47q-23 3 -48 3q-76 0 -176 -29v227z" />
    <glyph glyph-name="uni17D2_uni1796.zz02" unicode="&#x17d2;&#x1796;" 
d="M-534 -450q0 -29 73 -53v97zM-759 -260q-103 0 -214 -68q-156 67 -226 68q-70 0 -106.5 -25t-36.5 -90q0 -53 18.5 -90.5t55.5 -37.5q-13 23 -13 47q0 18 8 37q17 43 82 51q10 1 20 1q53 0 102 -35q58 -42 58 -124t-52.5 -128t-131.5 -46q-128 0 -192 76t-65 227v65
q0 109 131 196l132 86q179 -30 288 -107q86 86 184 107q98 -8 232 -55t134 -95v-349q0 -64 -36 -99t-110 -52q-54 0 -156 54.5t-102 156.5q30 27 96 60l132 65l66 32q-194 72 -298 72z" />
    <glyph glyph-name="uni17D2_uni1797.zz02" unicode="&#x17d2;&#x1797;" 
d="M-514 -431q16 -24 55 -30v65zM-1450 -373q0 146 147 234q146 89 422 89t404 -49.5t128 -115.5v-259q0 -97 -37 -153q-36 -57 -109 -74q-38 1 -129.5 66t-91.5 166q13 28 67 60l162 77q-41 20 -118 37q-76 16 -265 16q-433 0 -433 -33q147 -16 221 -66q73 -50 73 -134
q0 -94 -55 -142q-55 -46 -165 -46t-165 39t-55 117q0 67 44 92q27 16 69 16q28 0 62 -7q-29 -6 -29 -35q0 -27 70 -27t70 31q0 62 -125 71q-35 3 -63 3q-72 0 -99 -17v44z" />
    <glyph glyph-name="uni17D2_uni1798.zz02" unicode="&#x17d2;&#x1798;" 
d="M-350 -233q-50 0 -75 -19t-25 -57h50q100 0 150 -49q50 -48 50 -146q0 -97 -50 -145q-50 -49 -150 -49q-75 0 -112 48q-38 49 -38 146v108q-75 0 -112 -43q-38 -43 -38 -129v-2q0 -128 -150 -128h-50q-100 0 -250 130q-75 64 -200 97q-125 32 -300 32q0 89 200 89
q201 0 350 -73q148 -73 224 -73q76 1 126 94q49 93 200 93q0 129 50 194t150 65v-183zM-401 -592q50 0 50 88q0 108 -49 108h-50v-108q0 -88 49 -88z" />
    <glyph glyph-name="uni17D2_uni179A.zz05" unicode="&#x17d2;&#x179a;" horiz-adv-x="850" 
d="M700 0q0 -130 -120 -187q0 -106 141 -159t324 -54q317 1 426 93q109 93 129 257q50 0 50 -100q0 -200 -200 -350t-505 -150q-385 0 -569 123q-185 123 -226 427q400 0 400 240v493q-6 26 -62 50q-42 17 -99 17q-97 0 -239 -50v574q0 76 104 176t140 100t149.5 -68
t206.5 -68q-81 -273 -165 -273q-2 -1 -3 -1q-83 0 -143 35q-39 22 -73 22q-19 0 -36 -7q-49 -20 -79 -140q64 28 131 28q64 0 131 -25q138 -52 187 -153v-850z" />
    <glyph glyph-name="uni17D2_uni179B.zz02" unicode="&#x17d2;&#x179b;" 
d="M-250 -300q0 -200 -112 -300t-336 -100q-176 0 -267 62q-91 63 -98 188l171 100q-20 50 -76 75t-149 25q-168 0 -252 -50q-85 -50 -85 -150q0 -70 26 -105q27 -35 80 -35q38 0 38 40q-45 0 -68 25q-22 25 -22 75v3q0 48 29 72q31 25 91 25q65 0 98 -36q32 -36 32 -109
q0 -103 -50 -154q-49 -51 -148 -51q-101 0 -152 62q-50 63 -50 188q0 200 108 300t325 100q148 0 256 -50q109 -50 177 -150q0 -100 -165 -200q0 -50 151 -50q140 0 244 60q104 58 104 384v6q50 -50 75 -113q25 -62 25 -137z" />
    <glyph glyph-name="uni17D2_uni179C.zz02" unicode="&#x17d2;&#x179c;" 
d="M-350 -48q0 -208 -173 -431q-174 -224 -472 -224q-217 0 -356 92q-148 101 -149 216q0 67 192 84q191 18 479 100q287 83 479 211v-48zM-504 -222q-115 -43 -316 -101t-488 -92q1 -40 117 -64t196 -24q155 0 308 103t183 178z" />
    <glyph glyph-name="uni17D2_uni17A0.zz02" unicode="&#x17d2;&#x17a0;" 
d="M-275 -437q0 -15 70 -41v65zM-1698 -49h122q305 0 305 -207q0 -117 -135 -175q49 -49 130.5 -81t217.5 -32q146 0 226 29.5t80 53.5q0 30 -217 30h-89v318l11 -12q2 -3 11 -3q30 0 137 35q138 44 233 44q170 0 369 -50.5t199 -124.5v-306q0 -73 -35.5 -112.5
t-106.5 -58.5q-64 1 -156.5 62t-92.5 182q28 26 156 67.5t128 68.5t-192 68.5t-314 41.5q-123 0 -240 -49h36q142 0 212 -49q71 -49 71 -146q0 -86 -142 -166t-384 -80q-263 0 -401.5 77.5t-138.5 201.5q14 15 36 15q135 0 206 38t71 76t-313 38v206z" />
    <glyph glyph-name="uni17D2_uni17A2.zz02" unicode="&#x17d2;&#x17a2;" 
d="M-515 -430q16 -25 54 -30v65zM-1206 -430q19 -25 86 -30v65zM-985 -205q87 -68 165 -81q38 -7 81 -7q45 0 95 7q-34 -67 -128 -100q-47 -16 -106 -16q-57 0 -124 15q28 42 28 101q0 37 -11 81zM-1450 -50l86 -1h65q64 0 176 -41q112 -43 112 -121v-260q0 -97 -47 -155
q-48 -56 -134 -73q-69 1 -163 66t-95 199q100 36 330 120q-73 18 -148 28q-76 10 -182 10v228zM-718 -50l74 -1q110 0 202 -41q91 -43 91 -121v-260q0 -97 -37 -154q-36 -57 -109 -74q-59 1 -139.5 66t-81.5 189q85 46 172 88l86 42q-38 18 -102 28q-65 10 -156 10v228z" />
    <glyph glyph-name="uni17B7_uni17CD.zz06" unicode="&#x17b7;&#x17cd;" 
d="M-449 2019q0 -80 24 -120q23 -40 71 -40q54 0 54 51q-1 35 -51 35q0 64 31 96q32 32 95 32q62 0 94 -31q31 -30 31 -91q0 -100 -64 -151q-63 -50 -190 -50h-35q17 -48 29 -101q0 -50 -171 -50q-279 50 -475 50q-157 0 -323 -50q-118 0 -174 66q-57 65 -57 127
q0 157 143 282t428 125q165 0 299 -78q14 66 48 108q57 71 173 71q115 0 173 -23t115 -23q58 0 58 34q0 53 -58 53q0 55 29 82t87 27q57 0 86 -31q29 -30 29 -91q0 -101 -58 -151q-57 -51 -173 -51h-173q-48 0 -71 -26q-24 -27 -24 -81zM-1255 1778q120 21 249 21
q195 0 446 -52q-9 28 -31 54l-22 16q-22 17 -39 38q-21 15 -47 29q-116 65 -288 65q-125 0 -196.5 -50.5t-71.5 -120.5z" />
    <glyph glyph-name="uni1780_uni17B6.liga" unicode="&#x1780;&#x17b6;" horiz-adv-x="2650" 
d="M1519 406q31 0 31 44v117q-59 -55 -81 -74q-12 -10 -12 -24q0 -13 10 -29q20 -34 52 -34zM2369 406q31 0 31 44v117q-59 -55 -81 -74q-12 -10 -12 -24q0 -13 10 -29q20 -34 52 -34zM2500 1150v-950q0 -60 -60 -130t-140 -70q-161 0 -280 154q-120 153 -120 266
q0 71 250 140t250 233q0 171 -342 309t-451 138q-110 0 -254 -63t-236 -63q-95 0 -305.5 69t-267.5 69q-59 0 -196 -55q129 -4 223 -95l-162 -95q-93 50 -204 50q-27 0 -55 -3v206q464 240 636 240q129 0 332 -90t252 -90t209 90q159 90 253 90q122 0 395 -122.5t273 -227.5
zM434 1000q91 0 163 -29q70 -28 110 -80q237 209 389 209q186 0 554 -120v-840q-120 -140 -200 -140q-161 0 -280 154q-120 153 -120 296q208 20 467 183q-311 117 -461 117q-162 0 -306 -73v-477q0 -200 -300 -200t-300 300v150q94 -50 209 -50q114 0 203 58q74 48 86 146
q-22 -14 -48 -24q-72 -30 -150 -30q-300 0 -300 225t284 225z" />
    <glyph glyph-name="uni1781_uni17B6.liga" unicode="&#x1781;&#x17b6;" horiz-adv-x="2650" 
d="M2369 406q31 0 31 44v117q-59 -55 -81 -74q-12 -10 -12 -24q0 -13 10 -29q20 -34 52 -34zM1649 1035q1 -13 1 -26q0 -244 -262.5 -380.5t-787.5 -164.5q60 -164 424 -164t626 358q0 -658 -750 -658t-750 601q436 2 768 79t332 269q0 251 -450 251t-450 -180
q0 -77 36 -121v9q0 49 36.5 94t101.5 69.5t134 24.5q68 0 133 -24.5t102 -69.5t37 -94t-36 -93.5t-100.5 -69.5t-135.5 -25q-508 0 -508 320q0 460 750 460q635 0 732 -352q38 104 112 195q126 157 231 157q165 0 345 -123t180 -227v-950q0 -60 -60 -130t-140 -70
q-161 0 -280 154q-120 153 -120 266q0 71 250 140t250 233q0 131 -182.5 239t-325.5 108q-97 0 -243 -105z" />
    <glyph glyph-name="uni1782_uni17B6.liga" unicode="&#x1782;&#x17b6;" horiz-adv-x="2650" 
d="M2369 406q31 0 31 44v117q-59 -55 -81 -74q-12 -10 -12 -24q0 -13 10 -29q20 -34 52 -34zM2500 1150v-950q0 -60 -60 -130t-140 -70q-161 0 -280 154q-120 153 -120 266q0 71 250 140t250 233q0 171 -342 309t-451 138q-110 0 -254 -83t-236 -83q-95 0 -305.5 89
t-267.5 89q-59 0 -196 -55q129 -4 227 -126l-166 -64q-93 50 -204 50q-27 0 -55 -3v206q464 240 636 240q129 0 332 -90t252 -90t209 90q159 90 253 90q122 0 395 -122.5t273 -227.5zM1519 406q31 0 31 44v117q-59 -55 -81 -74q-12 -10 -12 -24q0 -13 10 -29q20 -34 52 -34z
M845 1060q277 0 805 -80v-840q-120 -140 -200 -140q-161 0 -280 154q-120 153 -120 296q208 20 467 183q-471 77 -721 77q-251 0 -398.5 -80t-147.5 -160q0 -130 149 -148q53 145 151.5 211.5t198.5 66.5q120 0 192 -77q47 -51 47 -111q0 -31 -12 -64q-37 -98 -102 -98
q-66 0 -106 44q-40 43 -99 43h-1q-61 -1 -79 -58q-3 -14 -3 -28q0 -62 67 -114q-64 -137 -215 -137q-148 0 -218 83t-70 216v431q85 167 251.5 248.5t443.5 81.5z" />
    <glyph glyph-name="uni1783_uni17B6.liga" unicode="&#x1783;&#x17b6;" horiz-adv-x="3340" 
d="M3090 450v117q-59 -55 -81 -74q-12 -10 -12 -24q0 -13 10 -29q20 -34 52 -34q31 0 31 44zM2450 601q0 -235 -200 -418t-520 -183q-245 0 -431 80q-164 -80 -389 -80q-370 0 -555 137.5t-205 412.5q240 0 356 81t145 177t29 130q0 106 -67.5 199t-162.5 93
q-149 0 -149 -75t80 -75q69 0 119 50q82 -51 106 -160q6 -30 6 -57q0 -74 -48 -133q-66 -80 -161 -80t-174 87.5t-79 282.5q0 200 100 315t231 115q185 0 272 -108t87 -324q0 -107 -49.5 -282t-180.5 -346q19 -50 134 -85t306 -35q205 0 327.5 60t122.5 200q0 55 -122 103
q-46 17 -113 17q-112 0 -285 -50v574q0 76 129 176t165 100t159.5 -68t214.5 -68q-79 -273 -163 -273q-2 -1 -3 -1q-83 0 -153 35q-45 22 -91 22q-27 0 -53 -7q-74 -20 -104 -140q105 33 193 33q126 0 219 -68q157 -115 157 -364q0 -137 -68 -256q107 -25 268 -25
q205 0 327.5 60t122.5 200q0 55 -102 103q-39 17 -106 17q-114 0 -312 -50v524q0 76 218 201t438 125q270 0 512 -113t242 -217v-970q0 -60 -60 -130t-140 -70q-161 0 -280 154q-120 153 -120 266q0 71 250 140t250 233q0 111 -279 254q-280 143 -490 143q-141 0 -249.5 -45
t-190.5 -145q121 33 215 33q136 0 217 -68q137 -115 137 -364z" />
    <glyph glyph-name="uni1784_uni17B6.liga" unicode="&#x1784;&#x17b6;" horiz-adv-x="2650" 
d="M2369 406q31 0 31 44v117q-59 -55 -81 -74q-12 -10 -12 -24q0 -13 10 -29q20 -34 52 -34zM1649 1035q1 -14 1 -27q0 -142 -99 -255t-287 -113q-304 0 -304 205t191 205h4q127 0 176 -69q-1 -7 -1 -14q0 -63 82 -65h6q83 0 83 53q0 97 -162 166t-386 69
q-291 0 -424.5 -53.5t-226.5 -115.5q73 14 140 14q116 0 214 -42q154 -67 154 -275q0 -148 -200 -278q19 -50 134 -85t306 -35q205 0 349 98.5t251 272.5q0 -325 -200 -508t-540 -183q-370 0 -555 137.5t-205 362.5q240 0 370 43q130 42 130 110q0 58 -128 58q-19 0 -41 -1
q-169 -10 -331 -60v466q90 144 284.5 264t514.5 120q291 0 496 -155q135 -102 181 -215q37 113 118 213q126 157 231 157q165 0 345 -123t180 -227v-950q0 -60 -60 -130t-140 -70q-161 0 -280 154q-120 153 -120 266q0 71 250 140t250 233q0 131 -182.5 239t-325.5 108
q-97 0 -243 -105z" />
    <glyph glyph-name="uni1785_uni17B6.liga" unicode="&#x1785;&#x17b6;" horiz-adv-x="2650" 
d="M2369 406q31 0 31 44v117q-59 -55 -81 -74q-12 -10 -12 -24q0 -13 10 -29q20 -34 52 -34zM2500 1150v-950q0 -60 -60 -130t-140 -70q-161 0 -280 154q-120 153 -120 266q0 71 250 140t250 233q0 171 -322 299t-471 128q-110 0 -254 -73t-236 -73q-95 0 -289.5 66
t-291.5 66q-89 0 -183 -60t-97 -114q111 26 201 26q118 0 199 -45q154 -87 154 -295q0 -148 -200 -278q19 -50 134 -85t306 -35q205 0 327.5 88.5t122.5 241.5q0 48 -9 87q-8 -20 -22 -40q-33 -49 -93.5 -75.5t-125.5 -26.5t-125.5 26.5t-93.5 75t-33 100.5q0 53 34 102
t94 75t124 26q400 0 400 -350q0 -284 -200 -467t-540 -183q-370 0 -555 137.5t-205 362.5q240 0 370 52.5t130 120.5q0 58 -128 58q-19 0 -41 -1q-169 -10 -331 -80v520q82 118 273 224t363 106q129 0 332 -90t252 -90t209 90q159 90 253 90q122 0 395 -122.5t273 -227.5z
" />
    <glyph glyph-name="uni1786_uni17B6.liga" unicode="&#x1786;&#x17b6;" horiz-adv-x="2650" 
d="M2400 450v117q-59 -55 -81 -74q-12 -10 -12 -24q0 -13 10 -29q20 -34 52 -34q31 0 31 44zM650 400v50q-59 0 -81 -13q-12 -7 -12 -19t10 -28q20 -34 52 -34q31 0 31 44zM150 1170q82 118 273 224t363 106q129 0 332 -90t252 -90t209 90q159 90 253 90q122 0 395 -122.5
t273 -227.5v-950q0 -60 -60 -130t-140 -70q-161 0 -280 154q-120 153 -120 266q0 71 250 140t250 233q0 171 -322 299t-471 128q-110 0 -254 -73t-236 -73q-95 0 -289.5 66t-291.5 66q-89 0 -183 -60t-97 -114q52 7 101 7q110 0 206 -36q138 -52 187 -153v-250q90 0 160 -52
q69 -53 110 -140q40 -88 178 -88q167 0 234.5 90t67.5 240q0 48 -9 87q-8 -20 -22 -40q-33 -49 -93.5 -75.5t-125.5 -26.5t-125.5 26.5t-93.5 75t-33 100.5q0 53 34 102t94 75t124 26q400 0 400 -350q0 -324 -130 -487t-305 -163q-315 0 -351 322q-34 128 -114 128v-310
q-120 -140 -200 -140q-161 0 -280 154q-120 153 -120 296q148 150 335 150h137v2q0 57 -152 91q-47 10 -95 10q-110 0 -225 -53v520z" />
    <glyph glyph-name="uni1787_uni17B6.liga" unicode="&#x1787;&#x17b6;" horiz-adv-x="2650" 
d="M2369 406q31 0 31 44v117q-59 -55 -81 -74q-12 -10 -12 -24q0 -13 10 -29q20 -34 52 -34zM1445 1071q-135 -102 -269 -102q-165 0 -330.5 95t-300.5 95q-175 0 -283 -138q104 26 191 26q115 0 203 -44q154 -77 154 -285q0 -148 -200 -278q19 -50 134 -85t306 -35
q205 0 349 98.5t251 342.5q0 -395 -200 -578t-540 -183q-370 0 -555 137.5t-205 362.5q240 0 370 42.5t130 110.5q0 67 -169 72h-20q-159 0 -311 -75v520q74 134 235 232t314 98q152 -1 360 -151t280 -150q62 0 62 81q0 80 -155 147q-118 51 -118 122q0 22 13 48
q50 102 175 102q124 0 229 -80t105 -225q0 -69 -36 -137q47 47 98 95q158 148 263 148q165 0 345 -123t180 -227v-950q0 -60 -60 -130t-140 -70q-161 0 -280 154q-120 153 -120 266q0 71 250 140t250 233q0 131 -182.5 264t-325.5 133q-173 0 -447 -119z" />
    <glyph glyph-name="uni1788_uni17B6.liga" unicode="&#x1788;&#x17b6;" horiz-adv-x="3870" 
d="M3620 450v117q-59 -55 -81 -74q-12 -10 -12 -24q0 -13 10 -29q20 -34 52 -34q31 0 31 44zM2980 601q0 -235 -200 -418t-520 -183q-245 0 -431 80q-164 -80 -389 -80q-230 0 -405 103.5t-258 309.5l321 464q-81 146 -195 230q-114 83 -254 83q-141 0 -224 -53
q-84 -54 -157 -116q57 14 109 14q88 0 160 -42q113 -67 113 -275q0 -118 -134 -222q-138 -108 -138 -150q0 -10 8 -16q13 -11 27 -11q26 0 52 45q38 66 92 66q143 0 143 -160q0 -270 -275 -270t-275 280q0 90 52 177q52 86 248 159q-16 112 -126 112q-111 0 -174 -58v446
q70 144 201.5 264t370.5 120t402 -109t216 -216l53 -108l-272 -464q53 -144 160.5 -213.5t298.5 -69.5q205 0 327.5 60t122.5 200q0 55 -122 103q-46 17 -113 17q-112 0 -285 -50v574q0 76 129 176t165 100t159.5 -68t214.5 -68q-79 -273 -163 -273q-2 -1 -3 -1
q-83 0 -153 35q-45 22 -91 22q-27 0 -53 -7q-74 -20 -104 -140q105 33 193 33q126 0 219 -68q157 -115 157 -364q0 -137 -68 -256q107 -25 268 -25q205 0 327.5 60t122.5 200q0 55 -102 103q-39 17 -106 17q-114 0 -312 -50v524q0 76 218 201t438 125q270 0 512 -113
t242 -217v-970q0 -60 -60 -130t-140 -70q-161 0 -280 154q-120 153 -120 266q0 71 250 140t250 233q0 111 -279 254q-280 143 -490 143q-141 0 -249.5 -45t-190.5 -145q121 33 215 33q136 0 217 -68q137 -115 137 -364z" />
    <glyph glyph-name="uni1789_uni17B6.liga" unicode="&#x1789;&#x17b6;" horiz-adv-x="3500" 
d="M1550 450v117q-59 -55 -81 -74q-12 -10 -12 -24q0 -13 10 -29q20 -34 52 -34q31 0 31 44zM3219 406q31 0 31 44v117q-59 -55 -81 -74q-12 -10 -12 -24q0 -13 10 -29q20 -34 52 -34zM2400 450v117q-59 -55 -81 -74q-12 -10 -12 -24q0 -13 10 -29q20 -34 52 -34q31 0 31 44
zM2350 -300q0 -350 -442 -350q-84 0 -166 5.5t-165 16.5q-166 21 -537 178q-163 50 -347 50q-322 0 -442 -150q0 300 552 300q387 0 665 -150q279 -150 440 -150q276 0 276 250q0 150 -110 150q-55 0 -55 -50t55 -50q0 -150 -111 -150q-165 0 -165 150q0 200 276 200
t276 -250zM2500 1035v-835q0 -60 -60 -130t-140 -70q-161 0 -280 154q-120 153 -120 266q0 71 250 140t250 233q0 111 -182 229q-183 118 -326 118q-97 0 -242 -105v-835q0 -60 -60 -130t-140 -70q-161 0 -280 154q-120 153 -120 266q0 71 250 140t250 233q0 111 -157 229
q-158 118 -271 118q-114 0 -232 -113q-182 113 -331 113q-109 -1 -194 -110q-85 -110 -85 -280q0 -174 60 -281q53 -94 174 -94q18 0 36 2q150 15 150 84q0 40 -27 64q-12 10 -23 10q-16 0 -30 -17q-27 -31 -103 -31q-142 0 -142 178q0 238 202 238q223 0 223 -345
q0 -558 -269 -558q-381 0 -381 750q0 360 135 555q134 195 303 195q109 0 204.5 -57t177.5 -138q130 195 235 195q145 0 295 -113q136 -103 149 -198q36 81 95 154q126 157 231 157q165 0 345 -123q152 -104 176 -195q36 85 98 161q126 157 231 157q165 0 345 -123t180 -227
v-950q0 -60 -60 -130t-140 -70q-161 0 -280 154q-120 153 -120 266q0 71 250 140t250 233q0 131 -182.5 239t-325.5 108q-97 0 -242 -105z" />
    <glyph glyph-name="uni178A_uni17B6.liga" unicode="&#x178a;&#x17b6;" horiz-adv-x="2650" 
d="M2369 406q31 0 31 44v117q-59 -55 -81 -74q-12 -10 -12 -24q0 -13 10 -29q20 -34 52 -34zM1446 1072q-135 -103 -270 -103q-165 0 -330.5 95t-300.5 95q-175 0 -283 -138q104 26 191 26q115 0 203 -44q154 -77 154 -285q0 -148 -200 -278q19 -50 74 -75t138 -25t241 178
q110 -158 186 -158t185 78.5t216 322.5q0 -395 -120 -578t-270 -183t-344 167q-181 -167 -323 -167q-143 0 -283 137.5t-160 362.5q240 0 370 42.5t130 110.5q0 67 -169 72h-20q-159 0 -311 -75v520q74 134 235 232t314 98q152 -1 360 -151t280 -150q62 0 62 81
q0 80 -155 147q-118 51 -118 122q0 22 13 48q50 102 175 102q124 0 229 -80t105 -225q0 -69 -36 -137q47 47 98 95q158 148 263 148q165 0 345 -123t180 -227v-950q0 -60 -60 -130t-140 -70q-161 0 -280 154q-120 153 -120 266q0 71 250 140t250 233q0 131 -182.5 264
t-325.5 133q-173 0 -446 -118z" />
    <glyph glyph-name="uni178B_uni17B6.liga" unicode="&#x178b;&#x17b6;" horiz-adv-x="2650" 
d="M2369 406q31 0 31 44v117q-59 -55 -81 -74q-12 -10 -12 -24q0 -13 10 -29q20 -34 52 -34zM1557 1117q-31 -26 -72 -26h-5q-82 0 -151 34q-45 22 -91 22q-27 0 -53 -7q-74 -20 -104 -140q105 33 193 33q126 0 219 -68q157 -115 157 -364q0 -235 -200 -418t-540 -183
q-370 0 -555 137.5t-205 412.5q240 0 356 81t145 177t29 130q0 106 -67.5 199t-162.5 93q-149 0 -149 -75t80 -75q69 0 119 50q82 -51 106 -160q6 -30 6 -57q0 -74 -48 -133q-66 -80 -161 -80t-174 87.5t-79 282.5q0 200 100 315t231 115q185 0 272 -108t87 -324
q0 -107 -49.5 -282t-180.5 -346q19 -50 134 -85t306 -35q205 0 327.5 60t122.5 200q0 55 -122 103q-46 17 -113 17q-112 0 -285 -50v574q0 76 129 176t165 100t98 -41q45 -30 75 -30q11 0 20 4q33 14 33 56q0 105 -121 105q-39 0 -92 -11q-123 49 -123 148q0 16 4 34
q23 124 148 124q124 0 229 -80t105 -325q0 -124 -21 -216q36 40 83 84q158 148 263 148q165 0 345 -123t180 -227v-950q0 -60 -60 -130t-140 -70q-161 0 -280 154q-120 153 -120 266q0 71 250 140t250 233q0 131 -182.5 264t-325.5 133q-158 0 -335 -73z" />
    <glyph glyph-name="uni178C_uni17B6.liga" unicode="&#x178c;&#x17b6;" horiz-adv-x="2650" 
d="M2369 406q31 0 31 44v117q-59 -55 -81 -74q-12 -10 -12 -24q0 -13 10 -29q20 -34 52 -34zM1627 1019q-22 -60 -65 -110q-87 -101 -350 -240q-262 -139 -572 -239q19 -50 79 -85t171 -35q212 0 316 82.5t104 227.5q177 68 262 68q78 0 78 -58v-430q-1 -225 -220 -225
q-73 0 -170 25q50 0 50 294q-160 -294 -510 -294q-250 0 -450 152q-200 153 -200 276v122q450 30 798.5 211.5t348.5 294.5q-51 124 -193 124q-111 0 -221 -167q-213 167 -389 167q-155 0 -155 -190v-45q0 -45 60 -45q39 160 185 160q206 0 206 -171q0 -189 -339 -189
q-143 0 -222 98t-79 253q0 189 189 319t280 130t162 -34t199 -123q127 157 261 157q133 0 271 -104q121 -92 136 -209q36 82 96 156q126 157 231 157q165 0 345 -123t180 -227v-950q0 -60 -60 -130t-140 -70q-161 0 -280 154q-120 153 -120 266q0 71 250 140t250 233
q0 131 -182.5 239t-325.5 108q-104 0 -265 -121z" />
    <glyph glyph-name="uni178D_uni17B6.liga" unicode="&#x178d;&#x17b6;" horiz-adv-x="3440" 
d="M1550 400v50q-59 0 -81 -13q-12 -7 -12 -19t10 -28q20 -34 52 -34q31 0 31 44zM3190 450v117q-59 -55 -81 -74q-12 -10 -12 -24q0 -13 10 -29q20 -34 52 -34q31 0 31 44zM800 558q0 -558 -269 -558q-381 0 -381 750q0 360 135 555q134 195 303 195q109 0 204.5 -57
t177.5 -138q130 175 235 185q12 1 24 1q133 0 271 -104q150 -113 150 -217v-570q90 0 160 -52q69 -53 110 -140q40 -88 178 -88q157 0 230 75q72 75 72 173q0 67 -102 115q-39 17 -106 17q-114 0 -312 -50v524q0 76 218 201t438 125q270 0 512 -113t242 -217v-970
q0 -60 -60 -130t-140 -70q-161 0 -280 154q-120 153 -120 266q0 71 250 140t250 233q0 111 -279 254q-280 143 -490 143q-141 0 -249.5 -45t-190.5 -145q121 33 215 33q136 0 217 -68q137 -115 137 -377t-130 -425t-305 -163q-315 0 -351 322q-34 128 -114 128v-310
q-120 -140 -200 -140q-161 0 -280 154q-120 153 -120 296q148 150 335 150h165v193q0 111 -157.5 229t-270.5 118q-114 0 -232 -113q-182 113 -331 113q-109 -1 -194 -110q-85 -110 -85 -280q0 -174 60 -281q53 -94 174 -94q18 0 36 2q150 15 150 84q0 40 -27 64
q-12 10 -23 10q-16 0 -30 -17q-27 -31 -103 -31q-142 0 -142 178q0 238 202 238q223 0 223 -345z" />
    <glyph glyph-name="uni178E_uni17B6.liga" unicode="&#x178e;&#x17b6;" horiz-adv-x="4033" 
d="M2899 406q31 0 31 44v117q-59 -55 -81 -74q-12 -10 -12 -24q0 -13 10 -29q20 -34 52 -34zM3752 406q31 0 31 44v117q-59 -55 -81 -74q-12 -10 -12 -24q0 -13 10 -29q20 -34 52 -34zM3030 1033v-833q0 -60 -60 -130t-140 -70q-161 0 -280 154q-120 153 -120 266
q0 71 250 140t250 233q0 111 -279 254q-280 143 -450 143q-141 0 -264 -45q-124 -45 -176 -145q105 33 189 33q122 0 203 -68q137 -115 137 -364q0 -305 -150 -453t-300 -148t-304 167q-191 -167 -313 -167q-143 0 -278 137.5t-155 362.5q0 194 358 417q-81 146 -210 209.5
t-269 63.5q-161 0 -244 -53q-84 -54 -157 -116q57 14 109 14q88 0 160 -42q113 -67 113 -275q0 -118 -134 -222q-138 -108 -138 -150q0 -10 8 -16q13 -11 27 -11q26 0 52 45q38 66 92 66q143 0 143 -160q0 -270 -275 -270t-275 280q0 90 52 177q52 86 248 159
q-16 112 -126 112q-111 0 -174 -58v446q70 144 216.5 264t405.5 120q209 0 428 -120t296 -359q-1 -86 -184 -202q-184 -116 -184 -242q65 -152 148 -194.5t176 -42.5t211 178q110 -158 206 -158t183.5 58.5t87.5 161.5q0 55 -102 103q-39 17 -101 17q-104 0 -277 -50v524
q0 76 198 201t418 125q270 0 512 -113q227 -106 241 -204q36 84 98 160q126 157 231 157q165 0 345 -123t180 -227v-950q0 -60 -60 -130t-140 -70q-161 0 -280 154q-120 153 -120 266q0 71 250 140t250 233q0 131 -182.5 239t-325.5 108q-98 0 -245 -107z" />
    <glyph glyph-name="uni178F_uni17B6.liga" unicode="&#x178f;&#x17b6;" horiz-adv-x="2650" 
d="M2369 406q31 0 31 44v117q-59 -55 -81 -74q-12 -10 -12 -24q0 -13 10 -29q20 -34 52 -34zM2500 1150v-950q0 -60 -60 -130t-140 -70q-161 0 -280 154q-120 153 -120 266q0 71 250 140t250 233q0 171 -342 309t-451 138q-110 0 -254 -83t-236 -83q-95 0 -305.5 89
t-267.5 89q-59 0 -196 -55q129 -4 227 -126l-166 -64q-93 50 -204 50q-27 0 -55 -3v206q464 240 636 240q129 0 332 -90t252 -90t209 90q159 90 253 90q122 0 395 -122.5t273 -227.5zM1519 406q31 0 31 44v117q-59 -55 -81 -74q-12 -10 -12 -24q0 -13 10 -29q20 -34 52 -34z
M845 1060q277 0 805 -80v-840q-120 -140 -200 -140q-161 0 -280 154q-120 153 -120 296q208 20 467 183q-471 77 -721 77q-251 0 -373.5 -65t-122.5 -225t238 -160q43 0 56 52h-12q-182 0 -182 149q0 153 216 173q22 2 42 2q181 0 241 -153q27 -69 27 -136q0 -97 -58 -190
q-99 -157 -278 -157q-440 0 -440 495q0 315 209 440t486 125z" />
    <glyph glyph-name="uni1790_uni17B6.liga" unicode="&#x1790;&#x17b6;" horiz-adv-x="2650" 
d="M2369 406q31 0 31 44v117q-59 -55 -81 -74q-12 -10 -12 -24q0 -13 10 -29q20 -34 52 -34zM1373 1084q-99 -55 -197 -55q-165 0 -330.5 65t-300.5 65q-165 0 -271 -123q101 22 183 22q118 0 199 -45q154 -87 154 -295q0 -148 -200 -278q19 -50 134 -85t306 -35
q205 0 327.5 88.5t122.5 191.5q0 48 -9 87q-8 -20 -22 -40q-33 -49 -93.5 -75.5t-125.5 -26.5t-125.5 26.5t-93.5 75t-33 100.5q0 53 34 102t94 75t124 26q400 0 400 -350q0 -234 -200 -417t-540 -183q-370 0 -555 137.5t-205 362.5q240 0 370 52.5t130 120.5q0 58 -128 58
q-19 0 -41 -1q-169 -10 -331 -80v520q74 134 235 232t314 98q152 -1 360 -121t280 -120q62 0 62 81q0 80 -155 147q-118 51 -118 122q0 22 13 48q50 102 175 102q124 0 229 -80t105 -225q0 -73 -41 -146q35 27 71 54q190 138 295 138q165 0 345 -123t180 -227v-950
q0 -60 -60 -130t-140 -70q-161 0 -280 154q-120 153 -120 266q0 71 250 140t250 233q0 131 -182.5 264t-325.5 133q-169 0 -519 -106z" />
    <glyph glyph-name="uni1791_uni17B6.liga" unicode="&#x1791;&#x17b6;" horiz-adv-x="2650" 
d="M2369 406q31 0 31 44v117q-59 -55 -81 -74q-12 -10 -12 -24q0 -13 10 -29q20 -34 52 -34zM1649 1035q1 -14 1 -27q0 -102 -99 -215t-287 -113q-304 0 -304 205t191 205h4q127 0 176 -69q-1 -7 -1 -14q0 -63 82 -65h6q83 0 83 53q0 67 -162 131t-386 64
q-291 0 -424.5 -53.5t-226.5 -115.5q73 14 140 14q116 0 214 -42q154 -67 154 -275q0 -178 -219 -323q58 -65 133 -65q85 0 240.5 145t355.5 145q125 0 227.5 -88.5t102.5 -212.5t-87.5 -221.5t-212.5 -97.5t-188 50q-62 50 -62 150t50 120q50 50 150 50q0 -50 50 -50t50 45
q0 65 -150 65q-130 0 -245 -215t-385 -215q-180 0 -325 118q-145 117 -145 250v132h100q190 0 295 42.5t105 110.5q0 58 -128 58q-19 0 -41 -1q-169 -10 -331 -60v466q90 144 284.5 264t514.5 120q291 0 496 -155q135 -102 181 -215q37 113 118 213q126 157 231 157
q165 0 345 -123t180 -227v-950q0 -60 -60 -130t-140 -70q-161 0 -280 154q-120 153 -120 266q0 71 250 140t250 233q0 131 -182.5 239t-325.5 108q-97 0 -243 -105z" />
    <glyph glyph-name="uni1792_uni17B6.liga" unicode="&#x1792;&#x17b6;" horiz-adv-x="2650" 
d="M2400 450v117q-59 -55 -81 -74q-12 -10 -12 -24q0 -13 10 -29q20 -34 52 -34q31 0 31 44zM150 1170q82 118 273 224t363 106q129 0 332 -90t252 -90t209 90q159 90 253 90q122 0 395 -122.5t273 -227.5v-950q0 -60 -60 -130t-140 -70q-161 0 -280 154q-120 153 -120 266
q0 71 250 140t250 233q0 171 -322 299t-471 128q-110 0 -254 -73t-236 -73q-95 0 -289.5 66t-291.5 66q-89 0 -183 -60t-97 -114q111 26 201 26q118 0 199 -45q154 -87 154 -295q0 -148 -200 -278q19 -50 74 -75t138 -25t241 178q110 -158 186 -158t163.5 78.5t87.5 211.5
q0 48 -9 87q-8 -20 -22 -40q-33 -49 -93.5 -75.5t-125.5 -26.5t-125.5 26.5t-93.5 75t-33 100.5q0 53 34 102t94 75t124 26q400 0 400 -350q0 -284 -120 -467t-270 -183t-344 167q-181 -167 -323 -167q-143 0 -283 137.5t-160 362.5q240 0 370 42.5t130 120.5q0 68 -133 68
q-17 0 -36 -1q-169 -10 -331 -80v520z" />
    <glyph glyph-name="uni1793_uni17B6.liga" unicode="&#x1793;&#x17b6;" horiz-adv-x="2650" 
d="M650 400v50q-59 0 -81 -13q-12 -7 -12 -19t10 -28q20 -34 52 -34q31 0 31 44zM2369 406q31 0 31 44v117q-59 -55 -81 -74q-12 -10 -12 -24q0 -13 10 -29q20 -34 52 -34zM1649 1035q1 -14 1 -27q0 -142 -99 -255t-287 -113q-304 0 -304 205t191 205h4q127 0 176 -69
q-1 -7 -1 -14q0 -63 82 -65h6q83 0 83 53q0 97 -162 166t-386 69q-291 0 -424.5 -53.5t-226.5 -115.5q49 13 100 13q78 0 161 -31q138 -52 187 -153v-250q90 0 160 -52q69 -53 110 -140q40 -88 178 -88q167 0 269.5 78t182.5 293q0 -365 -130 -528t-305 -163
q-315 0 -351 322q-34 128 -114 128v-310q-120 -140 -200 -140q-161 0 -280 154q-120 153 -120 296q148 150 335 150h137q-28 59 -84 83q-42 17 -106 17q-109 0 -282 -50v466q90 144 284.5 264t514.5 120q291 0 496 -155q135 -102 181 -215q37 113 118 213q126 157 231 157
q165 0 345 -123t180 -227v-950q0 -60 -60 -130t-140 -70q-161 0 -280 154q-120 153 -120 266q0 71 250 140t250 233q0 131 -182.5 239t-325.5 108q-97 0 -243 -105z" />
    <glyph glyph-name="uni1794_uni17B6.liga" unicode="&#x1794;&#x17b6;" horiz-adv-x="2650" 
d="M2400 450v117q-59 -55 -81 -74q-12 -10 -12 -24q0 -13 10 -29q20 -34 52 -34q31 0 31 44zM1497 230q-22 -24 -47 -47q-200 -183 -540 -183q-370 0 -555 137.5t-205 362.5q240 0 370 52.5t130 120.5q0 58 -128 58q-19 0 -41 -1q-169 -10 -331 -80v520q82 118 273 224
t363 106q129 0 332 -90t252 -90t209 90q159 90 253 90q122 0 395 -122.5t273 -227.5v-950q0 -60 -60 -130t-140 -70q-161 0 -280 154q-120 153 -120 266q0 71 250 140t250 233q0 171 -322 299t-471 128q-110 0 -254 -73t-236 -73q-95 0 -289.5 66t-291.5 66q-89 0 -183 -60
t-97 -114q111 26 201 26q118 0 199 -45q154 -87 154 -295q0 -148 -200 -278q19 -50 134 -85t306 -35q205 0 327.5 88.5t122.5 241.5q-45 -55 -110 -55t-115.5 26.5t-78.5 75t-28 100.5q0 53 29 102t89 75t184 26q180 0 180 -350v-550q0 -200 -140 -200t-140 72q0 71 65 114
q51 33 62 144z" />
    <glyph glyph-name="uni1795_uni17B6.liga" unicode="&#x1795;&#x17b6;" horiz-adv-x="2650" 
d="M2369 406q31 0 31 44v117q-59 -55 -81 -74q-12 -10 -12 -24q0 -13 10 -29q20 -34 52 -34zM1396 1098q-110 -69 -220 -69q-165 0 -330.5 65t-300.5 65q-165 0 -289 -127q111 26 201 26q118 0 199 -45q154 -87 154 -295q0 -148 -200 -278q19 -50 74 -75t138 -25t241 178
q110 -158 186 -158t163.5 78.5t87.5 171.5q0 48 -9 87q-8 -20 -22 -40q-33 -49 -93.5 -75.5t-125.5 -26.5t-125.5 26.5t-93.5 75t-33 100.5q0 53 34 102t94 75t124 26q400 0 400 -350q0 -244 -120 -427t-270 -183t-344 167q-181 -167 -323 -167q-143 0 -283 137.5
t-160 362.5q240 0 370 42.5t130 120.5q0 68 -133 68q-17 0 -36 -1q-169 -10 -331 -80v520q74 134 235 232t314 98q152 -1 360 -121t280 -120q62 0 62 81q0 80 -155 147q-118 51 -118 122q0 22 13 48q50 102 175 102q124 0 229 -80t105 -225q0 -101 -76 -199q58 48 119 99
q177 146 282 146q165 0 345 -123t180 -227v-950q0 -60 -60 -130t-140 -70q-161 0 -280 154q-120 153 -120 266q0 71 250 140t250 233q0 131 -182.5 264t-325.5 133q-167 0 -496 -92z" />
    <glyph glyph-name="uni1796_uni17B6.liga" unicode="&#x1796;&#x17b6;" horiz-adv-x="2650" 
d="M1519 406q31 0 31 44v117q-59 -55 -81 -74q-12 -10 -12 -24q0 -13 10 -29q20 -34 52 -34zM2369 406q31 0 31 44v117q-59 -55 -81 -74q-12 -10 -12 -24q0 -13 10 -29q20 -34 52 -34zM1650 1035v-835q0 -60 -60 -130t-140 -70q-161 0 -280 154q-120 153 -120 266
q0 71 250 140t250 233q0 111 -157 229q-158 118 -271 118q-114 0 -232 -113q-182 113 -331 113q-109 -1 -194 -110q-85 -110 -85 -280q0 -174 60 -281q53 -94 174 -94q18 0 36 2q150 15 150 84q0 40 -27 64q-12 10 -23 10q-16 0 -30 -17q-27 -31 -103 -31q-142 0 -142 178
q0 238 202 238q223 0 223 -345q0 -558 -269 -558q-381 0 -381 750q0 360 135 555q134 195 303 195q109 0 204.5 -57t177.5 -138q130 195 235 195q145 0 295 -113q136 -103 149 -198q36 81 95 154q126 157 231 157q165 0 345 -123t180 -227v-950q0 -60 -60 -130t-140 -70
q-161 0 -280 154q-120 153 -120 266q0 71 250 140t250 233q0 111 -182 229q-183 118 -326 118q-97 0 -242 -105z" />
    <glyph glyph-name="uni1797_uni17B6.liga" unicode="&#x1797;&#x17b6;" horiz-adv-x="2650" 
d="M2369 406q31 0 31 44v117q-59 -55 -81 -74q-12 -10 -12 -24q0 -13 10 -29q20 -34 52 -34zM2500 1150v-950q0 -60 -60 -130t-140 -70q-161 0 -280 154q-120 153 -120 266q0 71 250 140t250 233q0 171 -342 309t-451 138q-110 0 -254 -83t-236 -83q-95 0 -305.5 89
t-267.5 89q-59 0 -196 -55q129 -4 227 -126l-166 -64q-93 50 -204 50q-27 0 -55 -3v206q464 240 636 240q129 0 332 -90t252 -90t209 90q159 90 253 90q122 0 395 -122.5t273 -227.5zM1519 406q31 0 31 44v117q-59 -55 -81 -74q-12 -10 -12 -24q0 -13 10 -29q20 -34 52 -34z
M845 1060q277 0 805 -80v-840q-120 -140 -200 -140q-161 0 -280 154q-120 153 -120 296q208 20 467 183q-471 77 -701 77q-151 0 -246 -57q330 -76 330 -316q0 -337 -376 -337q-374 0 -374 285q0 241 245 243h3q143 0 194 -93q18 -32 18 -60q0 -54 -65 -94q-41 -25 -82 -25
q-55 0 -109 47q-69 60 -98 60q-11 0 -16 -7t-5 -16q0 -26 47 -67q53 -46 184 -46q27 0 56 2q138 11 138 166q0 112 -150 164q-80 27 -177 27q-85 0 -183 -21q0 205 209 350t486 145z" />
    <glyph glyph-name="uni1798_uni17B6.liga" unicode="&#x1798;&#x17b6;" horiz-adv-x="2540" 
d="M2259 406q31 0 31 44v117q-59 -55 -81 -74q-12 -10 -12 -24q0 -13 10 -29q20 -34 52 -34zM1650 601q0 -235 -200 -418t-540 -183q-370 0 -555 137.5t-205 362.5q240 0 370 42.5t130 110.5q0 58 -128 58q-19 0 -41 -1q-169 -10 -331 -60v574q0 76 144 176t188 100
t157.5 -59.5t258.5 -76.5q-109 -263 -203 -263q-2 -1 -3 -1q-93 0 -163 35q-45 22 -93 22q-28 0 -56 -7q-79 -20 -139 -150q123 28 222 28q111 0 193 -35q154 -67 154 -275q0 -148 -200 -278q19 -50 134 -85t306 -35q205 0 327.5 60t122.5 200q0 55 -102 103q-39 17 -101 17
q-104 0 -277 -50v524q0 76 198 201t418 125q270 0 512 -113t242 -217v-970q0 -60 -60 -130t-140 -70q-161 0 -280 154q-120 153 -120 266q0 71 250 140t250 233q0 111 -279 254q-280 143 -450 143q-141 0 -264 -45q-124 -45 -176 -145q105 33 189 33q122 0 203 -68
q137 -115 137 -364zM849 732q132 -121 246 -141q109 -20 252 -20h14q-69 -125 -219 -157q-36 -7 -78 -7q-136 0 -344 75q113 94 129 250z" />
    <glyph glyph-name="uni1799_uni17B6.liga" unicode="&#x1799;&#x17b6;" horiz-adv-x="3340" 
d="M3090 450v117q-59 -55 -81 -74q-12 -10 -12 -24q0 -13 10 -29q20 -34 52 -34q31 0 31 44zM2450 601q0 -235 -200 -418t-520 -183q-245 0 -431 80q-164 -80 -419 -80q-730 0 -730 830q0 670 390 670q310 0 310 -471q0 -241 -94 -339q-83 -87 -185 -87q-14 0 -29 2
q-119 14 -177 106q-30 47 -30 96q0 48 28 98q56 102 147 135q38 -59 106 -73q15 -3 27 -3q54 0 67 60q1 7 1 13q0 63 -132 91q-18 4 -37 4q-75 0 -151 -62q-95 -77 -117 -180q-3 -15 -3 -44q0 -35 5 -89q8 -100 92 -208t225.5 -158.5t396.5 -50.5q205 0 357.5 65t152.5 175
q0 55 -122 103q-46 17 -113 17q-112 0 -285 -50v574q0 76 129 176t165 100t159.5 -68t214.5 -68q-79 -273 -163 -273q-2 -1 -3 -1q-83 0 -153 35q-45 22 -91 22q-27 0 -53 -7q-74 -20 -104 -140q105 33 193 33q126 0 219 -68q157 -115 157 -364q0 -137 -68 -256
q107 -25 268 -25q205 0 327.5 60t122.5 200q0 55 -102 103q-39 17 -106 17q-114 0 -312 -50v524q0 76 218 201t438 125q270 0 512 -113t242 -217v-970q0 -60 -60 -130t-140 -70q-161 0 -280 154q-120 153 -120 266q0 71 250 140t250 233q0 111 -279 254q-280 143 -490 143
q-141 0 -249.5 -45t-190.5 -145q121 33 215 33q136 0 217 -68q137 -115 137 -364z" />
    <glyph glyph-name="uni179A_uni17B6.liga" unicode="&#x179a;&#x17b6;" horiz-adv-x="1800" 
d="M650 450v117q-59 -55 -81 -74q-12 -10 -12 -24q0 -13 10 -29q20 -34 52 -34q31 0 31 44zM1519 406q31 0 31 44v117q-59 -55 -81 -74q-12 -10 -12 -24q0 -13 10 -29q20 -34 52 -34zM635 1091h-5q-82 0 -151 34q-45 22 -87 22q-24 0 -47 -7q-64 -20 -94 -140q89 28 169 28
q76 0 143 -25q138 -52 187 -153v-710q-120 -140 -200 -140q-161 0 -280 154q-120 153 -120 296q208 20 467 183h5q-28 26 -84 50q-42 17 -106 17q-109 0 -282 -50v574q0 76 129 176t165 100t150 -68q111 -67 275 -74q153 142 256 142q165 0 345 -123t180 -227v-950
q0 -60 -60 -130t-140 -70q-161 0 -280 154q-120 153 -120 266q0 71 250 140t250 233q0 131 -182.5 264t-325.5 133q-161 0 -273 -49.5t-134 -49.5z" />
    <glyph glyph-name="uni179B_uni17B6.liga" unicode="&#x179b;&#x17b6;" horiz-adv-x="3070" 
d="M2820 450v117q-59 -55 -81 -74q-12 -10 -12 -24q0 -13 10 -29q20 -34 52 -34q31 0 31 44zM2180 601q0 -260 -190 -430.5t-550 -170.5q-230 0 -405 103.5t-258 309.5l321 464q-81 146 -195 230q-114 83 -254 83q-141 0 -224 -53q-84 -54 -157 -116q57 14 109 14
q88 0 160 -42q113 -67 113 -275q0 -118 -134 -222q-138 -108 -138 -150q0 -10 8 -16q13 -11 27 -11q26 0 52 45q38 66 92 66q143 0 143 -160q0 -270 -275 -270t-275 280q0 90 52 177q52 86 248 159q-16 112 -126 112q-111 0 -174 -58v446q70 144 201.5 264t370.5 120
t402 -109t216 -216l53 -108l-272 -464q53 -144 160.5 -213.5t298.5 -69.5q205 0 327.5 60t122.5 200q0 55 -102 103q-39 17 -106 17q-114 0 -312 -50v524q0 76 218 201t438 125q270 0 512 -113t242 -217v-970q0 -60 -60 -130t-140 -70q-161 0 -280 154q-120 153 -120 266
q0 71 250 140t250 233q0 111 -279 254q-280 143 -490 143q-141 0 -249.5 -45t-190.5 -145q121 33 215 33q136 0 217 -68q137 -115 137 -364z" />
    <glyph glyph-name="uni179C_uni17B6.liga" unicode="&#x179c;&#x17b6;" horiz-adv-x="2650" 
d="M2400 450v117q-59 -55 -81 -74q-12 -10 -12 -24q0 -13 10 -29q20 -34 52 -34q31 0 31 44zM150 1170q82 118 273 224t363 106q129 0 332 -90t252 -90t209 90q159 90 253 90q122 0 395 -122.5t273 -227.5v-950q0 -60 -60 -130t-140 -70q-161 0 -280 154q-120 153 -120 266
q0 71 250 140t250 233q0 171 -322 299t-471 128q-110 0 -254 -73t-236 -73q-95 0 -289.5 66t-291.5 66q-89 0 -183 -60t-97 -134q0 -64 31 -64q6 0 13 2q231 100 556 100q324 0 559 -125t235 -374q0 -275 -250 -413t-550 -138t-500 112q-200 113 -200 378q0 155 100 232
q100 78 330 78q150 0 275 -48.5t125 -158.5t-142 -164q-63 -24 -135 -24q-93 0 -201 39q-119 47 -122 156q-80 0 -80 -110q0 -60 94.5 -120t295.5 -60q270 0 440 62q170 63 170 188q0 170 -212 254q-212 85 -424 85t-320.5 -30t-193.5 -80v381z" />
    <glyph glyph-name="uni179D_uni17B6.liga" unicode="&#x179d;&#x17b6;" horiz-adv-x="2650" 
d="M2369 406q31 0 31 44v117q-59 -55 -81 -74q-12 -10 -12 -24q0 -13 10 -29q20 -34 52 -34zM2500 1150v-950q0 -60 -60 -130t-140 -70q-161 0 -280 154q-120 153 -120 266q0 71 250 140t250 233q0 171 -342 309t-451 138q-110 0 -254 -83t-236 -83q-95 0 -305.5 89
t-267.5 89q-59 0 -196 -55q129 -4 227 -126l-166 -64q-93 50 -204 50q-27 0 -55 -3v206q464 240 636 240q129 0 332 -90t252 -90t209 90q159 90 253 90q122 0 395 -122.5t273 -227.5zM1650 522v-382q-120 -140 -200 -140q-161 0 -280 154q-120 153 -120 296q112 11 239 63
q-36 6 -74 14q56 62 79 140q-311 43 -498 43q-251 0 -398.5 -80t-147.5 -160q0 -130 149 -148q53 145 151.5 211.5t198.5 66.5q120 0 192 -77q47 -51 47 -111q0 -31 -12 -64q-37 -98 -102 -98q-66 0 -106 44q-40 43 -99 43h-1q-61 -1 -79 -58q-3 -14 -3 -28q0 -62 67 -114
q-64 -137 -215 -137q-148 0 -218 83t-70 216v431q85 167 251.5 248.5t443.5 81.5t805 -80v-294q86 3 188 19q-50 -131 -188 -183zM1550 499q-31 -4 -65 -4h-14l-2 -2q-12 -10 -12 -24q0 -13 10 -29q20 -34 52 -34q31 0 31 44v49z" />
    <glyph glyph-name="uni179E_uni17B6.liga" unicode="&#x179e;&#x17b6;" horiz-adv-x="2650" 
d="M2400 450v117q-59 -55 -81 -74q-12 -10 -12 -24q0 -13 10 -29q20 -34 52 -34q31 0 31 44zM1650 462v-362q0 -200 -140 -200t-140 72q0 71 65 114q51 33 62 144q-22 -24 -47 -47q-200 -183 -540 -183q-370 0 -555 137.5t-205 362.5q240 0 370 52.5t130 120.5q0 58 -128 58
q-19 0 -41 -1q-169 -10 -331 -80v520q82 118 273 224t363 106q129 0 332 -90t252 -90t209 90q159 90 253 90q122 0 395 -122.5t273 -227.5v-950q0 -60 -60 -130t-140 -70q-161 0 -280 154q-120 153 -120 266q0 71 250 140t250 233q0 171 -322 299t-471 128q-110 0 -254 -73
t-236 -73q-95 0 -289.5 66t-291.5 66q-89 0 -183 -60t-97 -114q111 26 201 26q118 0 199 -45q154 -87 154 -295q0 -148 -200 -278q19 -50 134 -85t306 -35q205 0 328 89q31 22 54 49q-102 18 -232 65q50 42 81 95l-6 4q-51 26 -79 74.5t-28 100.5q0 53 29 102t89 75t184 26
q180 0 180 -350v-29q79 -9 172 -9h19q-62 -113 -191 -150z" />
    <glyph glyph-name="uni179F_uni17B6.liga" unicode="&#x179f;&#x17b6;" horiz-adv-x="3070" 
d="M2820 450v117q-59 -55 -81 -74q-12 -10 -12 -24q0 -13 10 -29q20 -34 52 -34q31 0 31 44zM2180 601q0 -260 -190 -430.5t-510 -170.5q-230 0 -395 104q-123 76 -123 138q0 21 15 41l186 223q-75 124 -205.5 185t-270.5 61q-387 0 -387 -242q0 -220 198 -220q197 0 218 73
q5 19 5 33q0 31 -28 31q-5 0 -11 -1q-33 -76 -172 -76q-140 0 -140 165t224 165q221 0 221 -273v-7q-3 -400 -314 -400q-145 0 -248 128.5t-103 305.5q0 397 240 543q-137 118 -228 118h-5q86 205 242 305t199 100q44 0 193 -68t259 -68q-85 -263 -197 -263q-2 -1 -3 -1
q-111 0 -200 40q-91 40 -150 46q-6 1 -13 1q-52 0 -102 -45q63 -15 141 -107q99 27 224 27q239 0 399.5 -75t266.5 -290l-152 -233q53 -144 316 -144q205 0 327.5 60t122.5 200q0 55 -102 103q-39 17 -106 17q-114 0 -312 -50v524q0 76 218 201t438 125q270 0 512 -113
t242 -217v-970q0 -60 -60 -130t-140 -70q-161 0 -280 154q-120 153 -120 266q0 71 250 140t250 233q0 111 -279 254q-280 143 -490 143q-141 0 -249.5 -45t-190.5 -145q121 33 215 33q136 0 217 -68q137 -115 137 -364z" />
    <glyph glyph-name="uni17A0_uni17B6.liga" unicode="&#x17a0;&#x17b6;" horiz-adv-x="3393" 
d="M2290 450v117q-59 -55 -81 -74q-12 -10 -12 -24q0 -13 10 -29q20 -34 52 -34q31 0 31 44zM3112 406q31 0 31 44v117q-59 -55 -81 -74q-12 -10 -12 -24q0 -13 10 -29q20 -34 52 -34zM2390 1033v-833q0 -60 -60 -130t-140 -70q-161 0 -280 154q-120 153 -120 266
q0 71 250 140t250 233q0 111 -279 254q-280 143 -450 143q-141 0 -264 -45q-124 -45 -176 -145q105 33 189 33q122 0 203 -68q137 -115 137 -364q0 -235 -200 -418t-540 -183q-370 0 -555 137.5t-205 362.5q240 0 370 42.5t130 110.5q0 58 -128 58q-19 0 -41 -1
q-169 -10 -331 -60v574q0 76 144 176t188 100t157.5 -59.5t258.5 -76.5q-109 -263 -203 -263q-2 -1 -3 -1q-93 0 -163 35q-45 22 -93 22q-28 0 -56 -7q-79 -20 -139 -150q123 28 222 28q111 0 193 -35q154 -67 154 -275q0 -148 -200 -278q19 -50 134 -85t306 -35
q205 0 327.5 60t122.5 200q0 55 -102 103q-39 17 -101 17q-104 0 -277 -50v524q0 76 198 201t418 125q270 0 512 -113q227 -106 241 -204q36 84 98 160q126 157 231 157q165 0 345 -123t180 -227v-950q0 -60 -60 -130t-140 -70q-161 0 -280 154q-120 153 -120 266
q0 71 250 140t250 233q0 131 -182.5 239t-325.5 108q-98 0 -245 -107z" />
    <glyph glyph-name="uni17A1_uni17B6.liga" unicode="&#x17a1;&#x17b6;" horiz-adv-x="3290" 
d="M3040 450v117q-59 -55 -81 -74q-12 -10 -12 -24q0 -13 10 -29q20 -34 52 -34q31 0 31 44zM724 330q85 0 240.5 145t355.5 145q125 0 227.5 -88.5t102.5 -212.5t-87.5 -221.5t-212.5 -97.5t-188 50q-62 50 -62 150t50 120q50 50 150 50q0 -50 50 -50t50 45q0 65 -150 65
q-130 0 -245 -215t-385 -215q-180 0 -325 118q-145 117 -145 250v132h100q190 0 295 42.5t105 110.5q0 58 -128 58q-19 0 -41 -1q-169 -10 -331 -60v466q90 144 284.5 264t514.5 120q291 0 496 -155t205 -337q0 -102 -99 -215t-287 -113q-304 0 -304 205t191 205h4
q127 0 176 -69q-1 -7 -1 -14q0 -63 82 -65h6q83 0 83 53q0 67 -162 131t-386 64q-291 0 -424.5 -53.5t-226.5 -115.5q73 14 140 14q116 0 214 -42q154 -67 154 -275q0 -178 -219 -323q58 -65 133 -65zM2400 -400q0 -300 -300 -300q-200 0 -300 150q-100 -150 -300 -150
q-350 0 -350 260q160 0 206 55q44 54 44 79v1q0 25 -50 25t-50 -70q-150 0 -150 100q0 150 175 150t175 -150q0 -100 -50 -190q0 -40 100 -40q160 0 250 140q100 -140 270 -140q180 0 180 130v958q-6 51 -130 79q-37 8 -81 8q-102 0 -239 -45v524q0 76 188 201t398 125
q270 0 512 -113t242 -217v-970q0 -60 -60 -130t-140 -70q-161 0 -280 154q-120 153 -120 266q0 71 250 140t250 233q0 111 -279 254q-279 142 -430 142h-7q-148 0 -261 -44q-118 -45 -162 -145q89 28 169 28q76 0 143 -25q138 -52 187 -153v-1250z" />
    <glyph glyph-name="uni17A2_uni17B6.liga" unicode="&#x17a2;&#x17b6;" horiz-adv-x="2540" 
d="M619 406q31 0 31 44v117q-59 -55 -81 -74q-12 -10 -12 -24q0 -13 10 -29q20 -34 52 -34zM750 140q-120 -140 -200 -140q-161 0 -280 154q-120 153 -120 296q208 20 467 183h5q-28 26 -84 50q-42 17 -106 17q-109 0 -282 -50v574q0 76 129 176t165 100t149.5 -68
t206.5 -68q-81 -273 -165 -273q-2 -1 -3 -1q-83 0 -153 35q-45 22 -87 22q-24 0 -47 -7q-64 -20 -94 -140q89 28 169 28q76 0 143 -25q138 -52 187 -153v-710zM808 707q113 -76 199 -76q6 0 12 1q90 5 204 39q-30 -127 -137 -188q-70 -39 -190 -39q-63 0 -140 11
q55 87 55 198q0 27 -3 54zM1550 450v117q-59 -55 -81 -74q-12 -10 -12 -24q0 -13 10 -29q20 -34 52 -34q31 0 31 44zM2290 450v117q-59 -55 -81 -74q-12 -10 -12 -24q0 -13 10 -29q20 -34 52 -34q31 0 31 44zM1151 1000q89 28 169 28q76 0 143 -25q138 -52 187 -153v-710
q-120 -140 -200 -140q-161 0 -280 154q-120 153 -120 296q208 20 472 183q-28 26 -84 50q-42 17 -106 17q-109 0 -282 -50v524q0 76 188 201t398 125q270 0 512 -113t242 -217v-970q0 -60 -60 -130t-140 -70q-161 0 -280 154q-120 153 -120 266q0 71 250 140t250 233
q0 111 -279 254q-279 142 -430 142h-7q-148 0 -261 -44q-118 -45 -162 -145z" />
    <glyph glyph-name="uni1780_uni17C5.liga" unicode="&#x1780;&#x17c5;" horiz-adv-x="2650" 
d="M1550 450v117q-59 -55 -81 -74q-12 -10 -12 -24q0 -13 10 -29q20 -34 52 -34q31 0 31 44zM2400 450v117q-59 -55 -81 -74q-12 -10 -12 -24q0 -13 10 -29q20 -34 52 -34q31 0 31 44zM434 1000q91 0 163 -29q70 -28 110 -80q237 209 389 209q186 0 554 -120v-840
q-120 -140 -200 -140q-161 0 -280 154q-120 153 -120 296q208 20 467 183q-311 117 -461 117q-162 0 -306 -73v-477q0 -200 -300 -200t-300 300v150q94 -50 209 -50q114 0 203 58q74 48 86 146q-22 -14 -48 -24q-72 -30 -150 -30q-300 0 -300 225t284 225zM2371 1303
q129 -81 129 -153v-950q0 -60 -60 -130t-140 -70q-161 0 -280 154q-120 153 -120 266q0 71 250 140t250 233q0 171 -342 309t-451 138q-110 0 -254 -63t-236 -63q-95 0 -305.5 69t-267.5 69q-59 0 -196 -55q129 -4 223 -95l-162 -95q-93 50 -204 50q-27 0 -55 -3v206
q464 240 636 240q129 0 332 -90t252 -90t209 90q159 90 253 90q122 0 395 -122q26 -12 49 -23q23 264 23 301v2q0 43 -49 43q-50 0 -100 -60v5q0 196 71 274q72 80 176 80q103 0 153 -69q50 -70 50 -170q-1 -101 -101 -222q-77 -93 -128 -236z" />
    <glyph glyph-name="uni1781_uni17C5.liga" unicode="&#x1781;&#x17c5;" horiz-adv-x="2650" 
d="M2400 450v117q-59 -55 -81 -74q-12 -10 -12 -24q0 -13 10 -29q20 -34 52 -34q31 0 31 44zM2381 1331q119 -97 119 -181v-950q0 -60 -60 -130t-140 -70q-161 0 -280 154q-120 153 -120 266q0 71 250 140t250 233q0 131 -182.5 239t-325.5 108q-97 0 -243 -105q1 -13 1 -26
q0 -244 -262.5 -380.5t-787.5 -164.5q60 -164 424 -164t626 358q0 -658 -750 -658t-750 601q436 2 768 79t332 269q0 251 -450 251t-450 -180q0 -77 36 -121v9q0 49 36.5 94t101.5 69.5t134 24.5q68 0 133 -24.5t102 -69.5t37 -94t-36 -93.5t-100.5 -69.5t-135.5 -25
q-508 0 -508 320q0 460 750 460q635 0 732 -352q38 104 112 195q126 157 231 157q147 0 305 -97q19 220 19 253v2q0 43 -49 43q-50 0 -100 -60v5q0 196 71 274q72 80 176 80q103 0 153 -69q50 -70 50 -170q-1 -101 -101 -222q-69 -83 -118 -208z" />
    <glyph glyph-name="uni1782_uni17C5.liga" unicode="&#x1782;&#x17c5;" horiz-adv-x="2650" 
d="M2400 450v117q-59 -55 -81 -74q-12 -10 -12 -24q0 -13 10 -29q20 -34 52 -34q31 0 31 44zM1519 406q31 0 31 44v117q-59 -55 -81 -74q-12 -10 -12 -24q0 -13 10 -29q20 -34 52 -34zM845 1060q277 0 805 -80v-840q-120 -140 -200 -140q-161 0 -280 154q-120 153 -120 296
q208 20 467 183q-471 77 -721 77q-251 0 -398.5 -80t-147.5 -160q0 -130 149 -148q53 145 151.5 211.5t198.5 66.5q120 0 192 -77q47 -51 47 -111q0 -31 -12 -64q-37 -98 -102 -98q-66 0 -106 44q-40 43 -99 43h-1q-61 -1 -79 -58q-3 -14 -3 -28q0 -62 67 -114
q-64 -137 -215 -137q-148 0 -218 83t-70 216v431q85 167 251.5 248.5t443.5 81.5zM2371 1303q129 -81 129 -153v-950q0 -60 -60 -130t-140 -70q-161 0 -280 154q-120 153 -120 266q0 71 250 140t250 233q0 171 -342 309t-451 138q-110 0 -254 -83t-236 -83q-95 0 -305.5 89
t-267.5 89q-59 0 -196 -55q129 -4 227 -126l-166 -64q-93 50 -204 50q-27 0 -55 -3v206q464 240 636 240q129 0 332 -90t252 -90t209 90q159 90 253 90q122 0 395 -122q26 -12 49 -23q23 264 23 301v2q0 43 -49 43q-50 0 -100 -60v5q0 196 71 274q72 80 176 80
q103 0 153 -69q50 -70 50 -170q-1 -101 -101 -222q-77 -93 -128 -236z" />
    <glyph glyph-name="uni1783_uni17C5.liga" unicode="&#x1783;&#x17c5;" horiz-adv-x="3340" 
d="M3090 450v117q-59 -55 -81 -74q-12 -10 -12 -24q0 -13 10 -29q20 -34 52 -34q31 0 31 44zM3068 1322q122 -78 122 -152v-970q0 -60 -60 -130t-140 -70q-161 0 -280 154q-120 153 -120 266q0 71 250 140t250 233q0 111 -279 254q-280 143 -490 143q-141 0 -249.5 -45
t-190.5 -145q121 33 215 33q136 0 217 -68q137 -115 137 -364q0 -235 -200 -418t-520 -183q-245 0 -431 80q-164 -80 -389 -80q-370 0 -555 137.5t-205 412.5q240 0 356 81t145 177t29 130q0 106 -67.5 199t-162.5 93q-149 0 -149 -75t80 -75q69 0 119 50q82 -51 106 -160
q6 -30 6 -57q0 -74 -48 -133q-66 -80 -161 -80t-174 87.5t-79 282.5q0 200 100 315t231 115q185 0 272 -108t87 -324q0 -107 -49.5 -282t-180.5 -346q19 -50 134 -85t306 -35q205 0 327.5 60t122.5 200q0 55 -122 103q-46 17 -113 17q-112 0 -285 -50v574q0 76 129 176
t165 100t159.5 -68t214.5 -68q-79 -273 -163 -273q-2 -1 -3 -1q-83 0 -153 35q-45 22 -91 22q-27 0 -53 -7q-74 -20 -104 -140q105 33 193 33q126 0 219 -68q157 -115 157 -364q0 -137 -68 -256q107 -25 268 -25q205 0 327.5 60t122.5 200q0 55 -102 103q-39 17 -106 17
q-114 0 -312 -50v524q0 76 218 201t438 125q270 0 512 -113q10 -5 20 -9q21 243 21 278v2q0 43 -49 43q-50 0 -100 -60v5q0 196 71 274q72 80 176 80q103 0 153 -69q50 -70 50 -170q-1 -101 -101 -222q-72 -86 -121 -217z" />
    <glyph glyph-name="uni1784_uni17C5.liga" unicode="&#x1784;&#x17c5;" horiz-adv-x="2650" 
d="M2400 450v117q-59 -55 -81 -74q-12 -10 -12 -24q0 -13 10 -29q20 -34 52 -34q31 0 31 44zM2381 1331q119 -97 119 -181v-950q0 -60 -60 -130t-140 -70q-161 0 -280 154q-120 153 -120 266q0 71 250 140t250 233q0 131 -182.5 239t-325.5 108q-97 0 -243 -105q1 -14 1 -27
q0 -142 -99 -255t-287 -113q-304 0 -304 205t191 205h4q127 0 176 -69q-1 -7 -1 -14q0 -63 82 -65h6q83 0 83 53q0 97 -162 166t-386 69q-291 0 -424.5 -53.5t-226.5 -115.5q73 14 140 14q116 0 214 -42q154 -67 154 -275q0 -148 -200 -278q19 -50 134 -85t306 -35
q205 0 349 98.5t251 272.5q0 -325 -200 -508t-540 -183q-370 0 -555 137.5t-205 362.5q240 0 370 43q130 42 130 110q0 58 -128 58q-19 0 -41 -1q-169 -10 -331 -60v466q90 144 284.5 264t514.5 120q291 0 496 -155q135 -102 181 -215q37 113 118 213q126 157 231 157
q147 0 305 -97q19 220 19 253v2q0 43 -49 43q-50 0 -100 -60v5q0 196 71 274q72 80 176 80q103 0 153 -69q50 -70 50 -170q-1 -101 -101 -222q-69 -83 -118 -208z" />
    <glyph glyph-name="uni1785_uni17C5.liga" unicode="&#x1785;&#x17c5;" horiz-adv-x="2650" 
d="M2400 450v117q-59 -55 -81 -74q-12 -10 -12 -24q0 -13 10 -29q20 -34 52 -34q31 0 31 44zM2371 1303q129 -81 129 -153v-950q0 -60 -60 -130t-140 -70q-161 0 -280 154q-120 153 -120 266q0 71 250 140t250 233q0 171 -322 299t-471 128q-110 0 -254 -73t-236 -73
q-95 0 -289.5 66t-291.5 66q-89 0 -183 -60t-97 -114q111 26 201 26q118 0 199 -45q154 -87 154 -295q0 -148 -200 -278q19 -50 134 -85t306 -35q205 0 327.5 88.5t122.5 241.5q0 48 -9 87q-8 -20 -22 -40q-33 -49 -93.5 -75.5t-125.5 -26.5t-125.5 26.5t-93.5 75t-33 100.5
q0 53 34 102t94 75t124 26q400 0 400 -350q0 -284 -200 -467t-540 -183q-370 0 -555 137.5t-205 362.5q240 0 370 52.5t130 120.5q0 58 -128 58q-19 0 -41 -1q-169 -10 -331 -80v520q82 118 273 224t363 106q129 0 332 -90t252 -90t209 90q159 90 253 90q122 0 395 -122
q26 -12 49 -23q23 264 23 301v2q0 43 -49 43q-50 0 -100 -60v5q0 196 71 274q72 80 176 80q103 0 153 -69q50 -70 50 -170q-1 -101 -101 -222q-77 -93 -128 -236z" />
    <glyph glyph-name="uni1786_uni17C5.liga" unicode="&#x1786;&#x17c5;" horiz-adv-x="2650" 
d="M2400 450v117q-59 -55 -81 -74q-12 -10 -12 -24q0 -13 10 -29q20 -34 52 -34q31 0 31 44zM650 400v50q-59 0 -81 -13q-12 -7 -12 -19t10 -28q20 -34 52 -34q31 0 31 44zM2371 1303q129 -81 129 -153v-950q0 -60 -60 -130t-140 -70q-161 0 -280 154q-120 153 -120 266
q0 71 250 140t250 233q0 171 -322 299t-471 128q-110 0 -254 -73t-236 -73q-95 0 -289.5 66t-291.5 66q-89 0 -183 -60t-97 -114q52 7 101 7q110 0 206 -36q138 -52 187 -153v-250q90 0 160 -52q69 -53 110 -140q40 -88 178 -88q167 0 234.5 90t67.5 240q0 48 -9 87
q-8 -20 -22 -40q-33 -49 -93.5 -75.5t-125.5 -26.5t-125.5 26.5t-93.5 75t-33 100.5q0 53 34 102t94 75t124 26q400 0 400 -350q0 -324 -130 -487t-305 -163q-315 0 -351 322q-34 128 -114 128v-310q-120 -140 -200 -140q-161 0 -280 154q-120 153 -120 296q148 150 335 150
h137v2q0 57 -152 91q-47 10 -95 10q-110 0 -225 -53v520q82 118 273 224t363 106q129 0 332 -90t252 -90t209 90q159 90 253 90q122 0 395 -122q26 -12 49 -23q23 264 23 301v2q0 43 -49 43q-50 0 -100 -60v5q0 196 71 274q72 80 176 80q103 0 153 -69q50 -70 50 -170
q-1 -101 -101 -222q-77 -93 -128 -236z" />
    <glyph glyph-name="uni1787_uni17C5.liga" unicode="&#x1787;&#x17c5;" horiz-adv-x="2650" 
d="M2400 450v117q-59 -55 -81 -74q-12 -10 -12 -24q0 -13 10 -29q20 -34 52 -34q31 0 31 44zM2381 1331q119 -97 119 -181v-950q0 -60 -60 -130t-140 -70q-161 0 -280 154q-120 153 -120 266q0 71 250 140t250 233q0 131 -182.5 264t-325.5 133q-173 0 -447 -119
q-135 -102 -269 -102q-165 0 -330.5 95t-300.5 95q-175 0 -283 -138q104 26 191 26q115 0 203 -44q154 -77 154 -285q0 -148 -200 -278q19 -50 134 -85t306 -35q205 0 349 98.5t251 342.5q0 -395 -200 -578t-540 -183q-370 0 -555 137.5t-205 362.5q240 0 370 42.5
t130 110.5q0 67 -169 72h-20q-159 0 -311 -75v520q74 134 235 232t314 98q152 -1 360 -151t280 -150q62 0 62 81q0 80 -155 147q-118 51 -118 122q0 22 13 48q50 102 175 102q124 0 229 -80t105 -225q0 -69 -36 -137q47 47 98 95q158 148 263 148q147 0 305 -97
q19 220 19 253v2q0 43 -49 43q-50 0 -100 -60v5q0 196 71 274q72 80 176 80q103 0 153 -69q50 -70 50 -170q-1 -101 -101 -222q-69 -83 -118 -208z" />
    <glyph glyph-name="uni1788_uni17C5.liga" unicode="&#x1788;&#x17c5;" horiz-adv-x="3870" 
d="M3620 450v117q-59 -55 -81 -74q-12 -10 -12 -24q0 -13 10 -29q20 -34 52 -34q31 0 31 44zM3598 1322q122 -78 122 -152v-970q0 -60 -60 -130t-140 -70q-161 0 -280 154q-120 153 -120 266q0 71 250 140t250 233q0 111 -279 254q-280 143 -490 143q-141 0 -249.5 -45
t-190.5 -145q121 33 215 33q136 0 217 -68q137 -115 137 -364q0 -235 -200 -418t-520 -183q-245 0 -431 80q-164 -80 -389 -80q-230 0 -405 103.5t-258 309.5l321 464q-81 146 -195 230q-114 83 -254 83q-141 0 -224 -53q-84 -54 -157 -116q57 14 109 14q88 0 160 -42
q113 -67 113 -275q0 -118 -134 -222q-138 -108 -138 -150q0 -10 8 -16q13 -11 27 -11q26 0 52 45q38 66 92 66q143 0 143 -160q0 -270 -275 -270t-275 280q0 90 52 177q52 86 248 159q-16 112 -126 112q-111 0 -174 -58v446q70 144 201.5 264t370.5 120t402 -109t216 -216
l53 -108l-272 -464q53 -144 160.5 -213.5t298.5 -69.5q205 0 327.5 60t122.5 200q0 55 -122 103q-46 17 -113 17q-112 0 -285 -50v574q0 76 129 176t165 100t159.5 -68t214.5 -68q-79 -273 -163 -273q-2 -1 -3 -1q-83 0 -153 35q-45 22 -91 22q-27 0 -53 -7
q-74 -20 -104 -140q105 33 193 33q126 0 219 -68q157 -115 157 -364q0 -137 -68 -256q107 -25 268 -25q205 0 327.5 60t122.5 200q0 55 -102 103q-39 17 -106 17q-114 0 -312 -50v524q0 76 218 201t438 125q270 0 512 -113q10 -5 20 -9q21 243 21 278v2q0 43 -49 43
q-50 0 -100 -60v5q0 196 71 274q72 80 176 80q103 0 153 -69q50 -70 50 -170q-1 -101 -101 -222q-72 -86 -121 -217z" />
    <glyph glyph-name="uni1789_uni17C5.liga" unicode="&#x1789;&#x17c5;" horiz-adv-x="3500" 
d="M1550 450v117q-59 -55 -81 -74q-12 -10 -12 -24q0 -13 10 -29q20 -34 52 -34q31 0 31 44zM2400 450v117q-59 -55 -81 -74q-12 -10 -12 -24q0 -13 10 -29q20 -34 52 -34q31 0 31 44zM3250 450v117q-59 -55 -81 -74q-12 -10 -12 -24q0 -13 10 -29q20 -34 52 -34q31 0 31 44
zM2350 -300q0 -350 -442 -350q-84 0 -166 5.5t-165 16.5q-166 21 -537 178q-163 50 -347 50q-322 0 -442 -150q0 300 552 300q387 0 665 -150q279 -150 440 -150q276 0 276 250q0 150 -110 150q-55 0 -55 -50t55 -50q0 -150 -111 -150q-165 0 -165 150q0 200 276 200
t276 -250zM3231 1331q119 -97 119 -181v-950q0 -60 -60 -130t-140 -70q-161 0 -280 154q-120 153 -120 266q0 71 250 140t250 233q0 131 -182.5 239t-325.5 108q-97 0 -242 -105v-835q0 -60 -60 -130t-140 -70q-161 0 -280 154q-120 153 -120 266q0 71 250 140t250 233
q0 111 -182 229q-183 118 -326 118q-97 0 -242 -105v-835q0 -60 -60 -130t-140 -70q-161 0 -280 154q-120 153 -120 266q0 71 250 140t250 233q0 111 -157 229q-158 118 -271 118q-114 0 -232 -113q-182 113 -331 113q-109 -1 -194 -110q-85 -110 -85 -280q0 -174 60 -281
q53 -94 174 -94q18 0 36 2q150 15 150 84q0 40 -27 64q-12 10 -23 10q-16 0 -30 -17q-27 -31 -103 -31q-142 0 -142 178q0 238 202 238q223 0 223 -345q0 -558 -269 -558q-381 0 -381 750q0 360 135 555q134 195 303 195q109 0 204.5 -57t177.5 -138q130 195 235 195
q145 0 295 -113q136 -103 149 -198q36 81 95 154q126 157 231 157q165 0 345 -123q152 -104 176 -195q36 85 98 161q126 157 231 157q147 0 305 -97q19 220 19 253v2q0 43 -49 43q-50 0 -100 -60v5q0 196 71 274q72 80 176 80q103 0 153 -69q50 -70 50 -170
q-1 -101 -101 -222q-69 -83 -118 -208z" />
    <glyph glyph-name="uni178A_uni17C5.liga" unicode="&#x178a;&#x17c5;" horiz-adv-x="2650" 
d="M2400 450v117q-59 -55 -81 -74q-12 -10 -12 -24q0 -13 10 -29q20 -34 52 -34q31 0 31 44zM2381 1331q119 -97 119 -181v-950q0 -60 -60 -130t-140 -70q-161 0 -280 154q-120 153 -120 266q0 71 250 140t250 233q0 131 -182.5 264t-325.5 133q-173 0 -446 -118
q-135 -103 -270 -103q-165 0 -330.5 95t-300.5 95q-175 0 -283 -138q104 26 191 26q115 0 203 -44q154 -77 154 -285q0 -148 -200 -278q19 -50 74 -75t138 -25t241 178q110 -158 186 -158t185 78.5t216 322.5q0 -395 -120 -578t-270 -183t-344 167q-181 -167 -323 -167
q-143 0 -283 137.5t-160 362.5q240 0 370 42.5t130 110.5q0 67 -169 72h-20q-159 0 -311 -75v520q74 134 235 232t314 98q152 -1 360 -151t280 -150q62 0 62 81q0 80 -155 147q-118 51 -118 122q0 22 13 48q50 102 175 102q124 0 229 -80t105 -225q0 -69 -36 -137
q47 47 98 95q158 148 263 148q147 0 305 -97q19 220 19 253v2q0 43 -49 43q-50 0 -100 -60v5q0 196 71 274q72 80 176 80q103 0 153 -69q50 -70 50 -170q-1 -101 -101 -222q-69 -83 -118 -208z" />
    <glyph glyph-name="uni178B_uni17C5.liga" unicode="&#x178b;&#x17c5;" horiz-adv-x="2650" 
d="M2400 450v117q-59 -55 -81 -74q-12 -10 -12 -24q0 -13 10 -29q20 -34 52 -34q31 0 31 44zM2381 1331q119 -97 119 -181v-950q0 -60 -60 -130t-140 -70q-161 0 -280 154q-120 153 -120 266q0 71 250 140t250 233q0 131 -182.5 264t-325.5 133q-158 0 -335 -73
q-31 -26 -72 -26h-5q-82 0 -151 34q-45 22 -91 22q-27 0 -53 -7q-74 -20 -104 -140q105 33 193 33q126 0 219 -68q157 -115 157 -364q0 -235 -200 -418t-540 -183q-370 0 -555 137.5t-205 412.5q240 0 356 81t145 177t29 130q0 106 -67.5 199t-162.5 93q-149 0 -149 -75
t80 -75q69 0 119 50q82 -51 106 -160q6 -30 6 -57q0 -74 -48 -133q-66 -80 -161 -80t-174 87.5t-79 282.5q0 200 100 315t231 115q185 0 272 -108t87 -324q0 -107 -49.5 -282t-180.5 -346q19 -50 134 -85t306 -35q205 0 327.5 60t122.5 200q0 55 -122 103q-46 17 -113 17
q-112 0 -285 -50v574q0 76 129 176t165 100t98 -41q45 -30 75 -30q11 0 20 4q33 14 33 56q0 105 -121 105q-39 0 -92 -11q-123 49 -123 148q0 16 4 34q23 124 148 124q124 0 229 -80t105 -325q0 -124 -21 -216q36 40 83 84q158 148 263 148q147 0 305 -97q19 220 19 253v2
q0 43 -49 43q-50 0 -100 -60v5q0 196 71 274q72 80 176 80q103 0 153 -69q50 -70 50 -170q-1 -101 -101 -222q-69 -83 -118 -208z" />
    <glyph glyph-name="uni178C_uni17C5.liga" unicode="&#x178c;&#x17c5;" horiz-adv-x="2650" 
d="M2400 450v117q-59 -55 -81 -74q-12 -10 -12 -24q0 -13 10 -29q20 -34 52 -34q31 0 31 44zM2381 1331q119 -97 119 -181v-950q0 -60 -60 -130t-140 -70q-161 0 -280 154q-120 153 -120 266q0 71 250 140t250 233q0 131 -182.5 239t-325.5 108q-104 0 -265 -121
q-22 -60 -65 -110q-87 -101 -350 -240q-262 -139 -572 -239q19 -50 79 -85t171 -35q212 0 316 82.5t104 227.5q177 68 262 68q78 0 78 -58v-430q-1 -225 -220 -225q-73 0 -170 25q50 0 50 294q-160 -294 -510 -294q-250 0 -450 152q-200 153 -200 276v122
q450 30 798.5 211.5t348.5 294.5q-51 124 -193 124q-111 0 -221 -167q-213 167 -389 167q-155 0 -155 -190v-45q0 -45 60 -45q39 160 185 160q206 0 206 -171q0 -189 -339 -189q-143 0 -222 98t-79 253q0 189 189 319t280 130t162 -34t199 -123q127 157 261 157
q133 0 271 -104q121 -92 136 -209q36 82 96 156q126 157 231 157q147 0 305 -97q19 220 19 253v2q0 43 -49 43q-50 0 -100 -60v5q0 196 71 274q72 80 176 80q103 0 153 -69q50 -70 50 -170q-1 -101 -101 -222q-69 -83 -118 -208z" />
    <glyph glyph-name="uni178D_uni17C5.liga" unicode="&#x178d;&#x17c5;" horiz-adv-x="3440" 
d="M1550 400v50q-59 0 -81 -13q-12 -7 -12 -19t10 -28q20 -34 52 -34q31 0 31 44zM3190 450v117q-59 -55 -81 -74q-12 -10 -12 -24q0 -13 10 -29q20 -34 52 -34q31 0 31 44zM3168 1322q122 -78 122 -152v-970q0 -60 -60 -130t-140 -70q-161 0 -280 154q-120 153 -120 266
q0 71 250 140t250 233q0 111 -279 254q-280 143 -490 143q-141 0 -249.5 -45t-190.5 -145q121 33 215 33q136 0 217 -68q137 -115 137 -377t-130 -425t-305 -163q-315 0 -351 322q-34 128 -114 128v-310q-120 -140 -200 -140q-161 0 -280 154q-120 153 -120 296
q148 150 335 150h165v193q0 111 -157.5 229t-270.5 118q-114 0 -232 -113q-182 113 -331 113q-109 -1 -194 -110q-85 -110 -85 -280q0 -174 60 -281q53 -94 174 -94q18 0 36 2q150 15 150 84q0 40 -27 64q-12 10 -23 10q-16 0 -30 -17q-27 -31 -103 -31q-142 0 -142 178
q0 238 202 238q223 0 223 -345q0 -558 -269 -558q-381 0 -381 750q0 360 135 555q134 195 303 195q109 0 204.5 -57t177.5 -138q130 175 235 185q12 1 24 1q133 0 271 -104q150 -113 150 -217v-570q90 0 160 -52q69 -53 110 -140q40 -88 178 -88q157 0 230 75q72 75 72 173
q0 67 -102 115q-39 17 -106 17q-114 0 -312 -50v524q0 76 218 201t438 125q270 0 512 -113q10 -5 20 -9q21 243 21 278v2q0 43 -49 43q-50 0 -100 -60v5q0 196 71 274q72 80 176 80q103 0 153 -69q50 -70 50 -170q-1 -101 -101 -222q-72 -86 -121 -217z" />
    <glyph glyph-name="uni178E_uni17C5.liga" unicode="&#x178e;&#x17c5;" horiz-adv-x="4033" 
d="M2930 450v117q-59 -55 -81 -74q-12 -10 -12 -24q0 -13 10 -29q20 -34 52 -34q31 0 31 44zM3783 450v117q-59 -55 -81 -74q-12 -10 -12 -24q0 -13 10 -29q20 -34 52 -34q31 0 31 44zM3764 1331q119 -97 119 -181v-950q0 -60 -60 -130t-140 -70q-161 0 -280 154
q-120 153 -120 266q0 71 250 140t250 233q0 131 -182.5 239t-325.5 108q-98 0 -245 -107v-833q0 -60 -60 -130t-140 -70q-161 0 -280 154q-120 153 -120 266q0 71 250 140t250 233q0 111 -279 254q-280 143 -450 143q-141 0 -264 -45q-124 -45 -176 -145q105 33 189 33
q122 0 203 -68q137 -115 137 -364q0 -305 -150 -453t-300 -148t-304 167q-191 -167 -313 -167q-143 0 -278 137.5t-155 362.5q0 194 358 417q-81 146 -210 209.5t-269 63.5q-161 0 -244 -53q-84 -54 -157 -116q57 14 109 14q88 0 160 -42q113 -67 113 -275q0 -118 -134 -222
q-138 -108 -138 -150q0 -10 8 -16q13 -11 27 -11q26 0 52 45q38 66 92 66q143 0 143 -160q0 -270 -275 -270t-275 280q0 90 52 177q52 86 248 159q-16 112 -126 112q-111 0 -174 -58v446q70 144 216.5 264t405.5 120q209 0 428 -120t296 -359q-1 -86 -184 -202
q-184 -116 -184 -242q65 -152 148 -194.5t176 -42.5t211 178q110 -158 206 -158t183.5 58.5t87.5 161.5q0 55 -102 103q-39 17 -101 17q-104 0 -277 -50v524q0 76 198 201t418 125q270 0 512 -113q227 -106 241 -204q36 84 98 160q126 157 231 157q147 0 305 -97
q19 220 19 253v2q0 43 -49 43q-50 0 -100 -60v5q0 196 71 274q72 80 176 80q103 0 153 -69q50 -70 50 -170q-1 -101 -101 -222q-69 -83 -118 -208z" />
    <glyph glyph-name="uni178F_uni17C5.liga" unicode="&#x178f;&#x17c5;" horiz-adv-x="2650" 
d="M2400 450v117q-59 -55 -81 -74q-12 -10 -12 -24q0 -13 10 -29q20 -34 52 -34q31 0 31 44zM1519 406q31 0 31 44v117q-59 -55 -81 -74q-12 -10 -12 -24q0 -13 10 -29q20 -34 52 -34zM845 1060q277 0 805 -80v-840q-120 -140 -200 -140q-161 0 -280 154q-120 153 -120 296
q208 20 467 183q-471 77 -721 77q-251 0 -373.5 -65t-122.5 -225t238 -160q43 0 56 52h-12q-182 0 -182 149q0 153 216 173q22 2 42 2q181 0 241 -153q27 -69 27 -136q0 -97 -58 -190q-99 -157 -278 -157q-440 0 -440 495q0 315 209 440t486 125zM2371 1303
q129 -81 129 -153v-950q0 -60 -60 -130t-140 -70q-161 0 -280 154q-120 153 -120 266q0 71 250 140t250 233q0 171 -342 309t-451 138q-110 0 -254 -83t-236 -83q-95 0 -305.5 89t-267.5 89q-59 0 -196 -55q129 -4 227 -126l-166 -64q-93 50 -204 50q-27 0 -55 -3v206
q464 240 636 240q129 0 332 -90t252 -90t209 90q159 90 253 90q122 0 395 -122q26 -12 49 -23q23 264 23 301v2q0 43 -49 43q-50 0 -100 -60v5q0 196 71 274q72 80 176 80q103 0 153 -69q50 -70 50 -170q-1 -101 -101 -222q-77 -93 -128 -236z" />
    <glyph glyph-name="uni1790_uni17C5.liga" unicode="&#x1790;&#x17c5;" horiz-adv-x="2650" 
d="M2400 450v117q-59 -55 -81 -74q-12 -10 -12 -24q0 -13 10 -29q20 -34 52 -34q31 0 31 44zM2381 1331q119 -97 119 -181v-950q0 -60 -60 -130t-140 -70q-161 0 -280 154q-120 153 -120 266q0 71 250 140t250 233q0 131 -182.5 264t-325.5 133q-169 0 -519 -106
q-99 -55 -197 -55q-165 0 -330.5 65t-300.5 65q-165 0 -271 -123q101 22 183 22q118 0 199 -45q154 -87 154 -295q0 -148 -200 -278q19 -50 134 -85t306 -35q205 0 327.5 88.5t122.5 191.5q0 48 -9 87q-8 -20 -22 -40q-33 -49 -93.5 -75.5t-125.5 -26.5t-125.5 26.5
t-93.5 75t-33 100.5q0 53 34 102t94 75t124 26q400 0 400 -350q0 -234 -200 -417t-540 -183q-370 0 -555 137.5t-205 362.5q240 0 370 52.5t130 120.5q0 58 -128 58q-19 0 -41 -1q-169 -10 -331 -80v520q74 134 235 232t314 98q152 -1 360 -121t280 -120q62 0 62 81
q0 80 -155 147q-118 51 -118 122q0 22 13 48q50 102 175 102q124 0 229 -80t105 -225q0 -73 -41 -146q35 27 71 54q190 138 295 138q147 0 305 -97q19 220 19 253v2q0 43 -49 43q-50 0 -100 -60v5q0 196 71 274q72 80 176 80q103 0 153 -69q50 -70 50 -170
q-1 -101 -101 -222q-69 -83 -118 -208z" />
    <glyph glyph-name="uni1791_uni17C5.liga" unicode="&#x1791;&#x17c5;" horiz-adv-x="2650" 
d="M2400 450v117q-59 -55 -81 -74q-12 -10 -12 -24q0 -13 10 -29q20 -34 52 -34q31 0 31 44zM2381 1331q119 -97 119 -181v-950q0 -60 -60 -130t-140 -70q-161 0 -280 154q-120 153 -120 266q0 71 250 140t250 233q0 131 -182.5 239t-325.5 108q-97 0 -243 -105q1 -14 1 -27
q0 -102 -99 -215t-287 -113q-304 0 -304 205t191 205h4q127 0 176 -69q-1 -7 -1 -14q0 -63 82 -65h6q83 0 83 53q0 67 -162 131t-386 64q-291 0 -424.5 -53.5t-226.5 -115.5q73 14 140 14q116 0 214 -42q154 -67 154 -275q0 -178 -219 -323q58 -65 133 -65q85 0 240.5 145
t355.5 145q125 0 227.5 -88.5t102.5 -212.5t-87.5 -221.5t-212.5 -97.5t-188 50q-62 50 -62 150t50 120q50 50 150 50q0 -50 50 -50t50 45q0 65 -150 65q-130 0 -245 -215t-385 -215q-180 0 -325 118q-145 117 -145 250v132h100q190 0 295 42.5t105 110.5q0 58 -128 58
q-19 0 -41 -1q-169 -10 -331 -60v466q90 144 284.5 264t514.5 120q291 0 496 -155q135 -102 181 -215q37 113 118 213q126 157 231 157q147 0 305 -97q19 220 19 253v2q0 43 -49 43q-50 0 -100 -60v5q0 196 71 274q72 80 176 80q103 0 153 -69q50 -70 50 -170
q-1 -101 -101 -222q-69 -83 -118 -208z" />
    <glyph glyph-name="uni1792_uni17C5.liga" unicode="&#x1792;&#x17c5;" horiz-adv-x="2650" 
d="M2400 450v117q-59 -55 -81 -74q-12 -10 -12 -24q0 -13 10 -29q20 -34 52 -34q31 0 31 44zM2371 1303q129 -81 129 -153v-950q0 -60 -60 -130t-140 -70q-161 0 -280 154q-120 153 -120 266q0 71 250 140t250 233q0 171 -322 299t-471 128q-110 0 -254 -73t-236 -73
q-95 0 -289.5 66t-291.5 66q-89 0 -183 -60t-97 -114q111 26 201 26q118 0 199 -45q154 -87 154 -295q0 -148 -200 -278q19 -50 74 -75t138 -25t241 178q110 -158 186 -158t163.5 78.5t87.5 211.5q0 48 -9 87q-8 -20 -22 -40q-33 -49 -93.5 -75.5t-125.5 -26.5t-125.5 26.5
t-93.5 75t-33 100.5q0 53 34 102t94 75t124 26q400 0 400 -350q0 -284 -120 -467t-270 -183t-344 167q-181 -167 -323 -167q-143 0 -283 137.5t-160 362.5q240 0 370 42.5t130 120.5q0 68 -133 68q-17 0 -36 -1q-169 -10 -331 -80v520q82 118 273 224t363 106q129 0 332 -90
t252 -90t209 90q159 90 253 90q122 0 395 -122q26 -12 49 -23q23 264 23 301v2q0 43 -49 43q-50 0 -100 -60v5q0 196 71 274q72 80 176 80q103 0 153 -69q50 -70 50 -170q-1 -101 -101 -222q-77 -93 -128 -236z" />
    <glyph glyph-name="uni1793_uni17C5.liga" unicode="&#x1793;&#x17c5;" horiz-adv-x="2650" 
d="M650 400v50q-59 0 -81 -13q-12 -7 -12 -19t10 -28q20 -34 52 -34q31 0 31 44zM2400 450v117q-59 -55 -81 -74q-12 -10 -12 -24q0 -13 10 -29q20 -34 52 -34q31 0 31 44zM2381 1331q119 -97 119 -181v-950q0 -60 -60 -130t-140 -70q-161 0 -280 154q-120 153 -120 266
q0 71 250 140t250 233q0 131 -182.5 239t-325.5 108q-97 0 -243 -105q1 -14 1 -27q0 -142 -99 -255t-287 -113q-304 0 -304 205t191 205h4q127 0 176 -69q-1 -7 -1 -14q0 -63 82 -65h6q83 0 83 53q0 97 -162 166t-386 69q-291 0 -424.5 -53.5t-226.5 -115.5q49 13 100 13
q78 0 161 -31q138 -52 187 -153v-250q90 0 160 -52q69 -53 110 -140q40 -88 178 -88q167 0 269.5 78t182.5 293q0 -365 -130 -528t-305 -163q-315 0 -351 322q-34 128 -114 128v-310q-120 -140 -200 -140q-161 0 -280 154q-120 153 -120 296q148 150 335 150h137
q-28 59 -84 83q-42 17 -106 17q-109 0 -282 -50v466q90 144 284.5 264t514.5 120q291 0 496 -155q135 -102 181 -215q37 113 118 213q126 157 231 157q147 0 305 -97q19 220 19 253v2q0 43 -49 43q-50 0 -100 -60v5q0 196 71 274q72 80 176 80q103 0 153 -69q50 -70 50 -170
q-1 -101 -101 -222q-69 -83 -118 -208z" />
    <glyph glyph-name="uni1794_uni17C5.liga" unicode="&#x1794;&#x17c5;" horiz-adv-x="2650" 
d="M2400 450v117q-59 -55 -81 -74q-12 -10 -12 -24q0 -13 10 -29q20 -34 52 -34q31 0 31 44zM2371 1303q129 -81 129 -153v-950q0 -60 -60 -130t-140 -70q-161 0 -280 154q-120 153 -120 266q0 71 250 140t250 233q0 171 -322 299t-471 128q-110 0 -254 -73t-236 -73
q-95 0 -289.5 66t-291.5 66q-89 0 -183 -60t-97 -114q111 26 201 26q118 0 199 -45q154 -87 154 -295q0 -148 -200 -278q19 -50 134 -85t306 -35q205 0 327.5 88.5t122.5 241.5q-45 -55 -110 -55t-115.5 26.5t-78.5 75t-28 100.5q0 53 29 102t89 75t184 26q180 0 180 -350
v-550q0 -200 -140 -200t-140 72q0 71 65 114q51 33 62 144q-22 -24 -47 -47q-200 -183 -540 -183q-370 0 -555 137.5t-205 362.5q240 0 370 52.5t130 120.5q0 58 -128 58q-19 0 -41 -1q-169 -10 -331 -80v520q82 118 273 224t363 106q129 0 332 -90t252 -90t209 90
q159 90 253 90q122 0 395 -122q26 -12 49 -23q23 264 23 301v2q0 43 -49 43q-50 0 -100 -60v5q0 196 71 274q72 80 176 80q103 0 153 -69q50 -70 50 -170q-1 -101 -101 -222q-77 -93 -128 -236z" />
    <glyph glyph-name="uni1795_uni17C5.liga" unicode="&#x1795;&#x17c5;" horiz-adv-x="2650" 
d="M2400 450v117q-59 -55 -81 -74q-12 -10 -12 -24q0 -13 10 -29q20 -34 52 -34q31 0 31 44zM2381 1331q119 -97 119 -181v-950q0 -60 -60 -130t-140 -70q-161 0 -280 154q-120 153 -120 266q0 71 250 140t250 233q0 131 -182.5 264t-325.5 133q-167 0 -496 -92
q-110 -69 -220 -69q-165 0 -330.5 65t-300.5 65q-165 0 -289 -127q111 26 201 26q118 0 199 -45q154 -87 154 -295q0 -148 -200 -278q19 -50 74 -75t138 -25t241 178q110 -158 186 -158t163.5 78.5t87.5 171.5q0 48 -9 87q-8 -20 -22 -40q-33 -49 -93.5 -75.5t-125.5 -26.5
t-125.5 26.5t-93.5 75t-33 100.5q0 53 34 102t94 75t124 26q400 0 400 -350q0 -244 -120 -427t-270 -183t-344 167q-181 -167 -323 -167q-143 0 -283 137.5t-160 362.5q240 0 370 42.5t130 120.5q0 68 -133 68q-17 0 -36 -1q-169 -10 -331 -80v520q74 134 235 232t314 98
q152 -1 360 -121t280 -120q62 0 62 81q0 80 -155 147q-118 51 -118 122q0 22 13 48q50 102 175 102q124 0 229 -80t105 -225q0 -101 -76 -199q58 48 119 99q177 146 282 146q147 0 305 -97q19 220 19 253v2q0 43 -49 43q-50 0 -100 -60v5q0 196 71 274q72 80 176 80
q103 0 153 -69q50 -70 50 -170q-1 -101 -101 -222q-69 -83 -118 -208z" />
    <glyph glyph-name="uni1796_uni17C5.liga" unicode="&#x1796;&#x17c5;" horiz-adv-x="2650" 
d="M1550 450v117q-59 -55 -81 -74q-12 -10 -12 -24q0 -13 10 -29q20 -34 52 -34q31 0 31 44zM2400 450v117q-59 -55 -81 -74q-12 -10 -12 -24q0 -13 10 -29q20 -34 52 -34q31 0 31 44zM2381 1331q119 -97 119 -181v-950q0 -60 -60 -130t-140 -70q-161 0 -280 154
q-120 153 -120 266q0 71 250 140t250 233q0 111 -182 229q-183 118 -326 118q-97 0 -242 -105v-835q0 -60 -60 -130t-140 -70q-161 0 -280 154q-120 153 -120 266q0 71 250 140t250 233q0 111 -157 229q-158 118 -271 118q-114 0 -232 -113q-182 113 -331 113
q-109 -1 -194 -110q-85 -110 -85 -280q0 -174 60 -281q53 -94 174 -94q18 0 36 2q150 15 150 84q0 40 -27 64q-12 10 -23 10q-16 0 -30 -17q-27 -31 -103 -31q-142 0 -142 178q0 238 202 238q223 0 223 -345q0 -558 -269 -558q-381 0 -381 750q0 360 135 555
q134 195 303 195q109 0 204.5 -57t177.5 -138q130 195 235 195q145 0 295 -113q136 -103 149 -198q36 81 95 154q126 157 231 157q147 0 305 -97q19 220 19 253v2q0 43 -49 43q-50 0 -100 -60v5q0 196 71 274q72 80 176 80q103 0 153 -69q50 -70 50 -170q-1 -101 -101 -222
q-69 -83 -118 -208z" />
    <glyph glyph-name="uni1797_uni17C5.liga" unicode="&#x1797;&#x17c5;" horiz-adv-x="2650" 
d="M2400 450v117q-59 -55 -81 -74q-12 -10 -12 -24q0 -13 10 -29q20 -34 52 -34q31 0 31 44zM1519 406q31 0 31 44v117q-59 -55 -81 -74q-12 -10 -12 -24q0 -13 10 -29q20 -34 52 -34zM845 1060q277 0 805 -80v-840q-120 -140 -200 -140q-161 0 -280 154q-120 153 -120 296
q208 20 467 183q-471 77 -701 77q-151 0 -246 -57q330 -76 330 -316q0 -337 -376 -337q-374 0 -374 285q0 241 245 243h3q143 0 194 -93q18 -32 18 -60q0 -54 -65 -94q-41 -25 -82 -25q-55 0 -109 47q-69 60 -98 60q-11 0 -16 -7t-5 -16q0 -26 47 -67q53 -46 184 -46
q27 0 56 2q138 11 138 166q0 112 -150 164q-80 27 -177 27q-85 0 -183 -21q0 205 209 350t486 145zM2371 1303q129 -81 129 -153v-950q0 -60 -60 -130t-140 -70q-161 0 -280 154q-120 153 -120 266q0 71 250 140t250 233q0 171 -342 309t-451 138q-110 0 -254 -83t-236 -83
q-95 0 -305.5 89t-267.5 89q-59 0 -196 -55q129 -4 227 -126l-166 -64q-93 50 -204 50q-27 0 -55 -3v206q464 240 636 240q129 0 332 -90t252 -90t209 90q159 90 253 90q122 0 395 -122q26 -12 49 -23q23 264 23 301v2q0 43 -49 43q-50 0 -100 -60v5q0 196 71 274
q72 80 176 80q103 0 153 -69q50 -70 50 -170q-1 -101 -101 -222q-77 -93 -128 -236z" />
    <glyph glyph-name="uni1798_uni17C5.liga" unicode="&#x1798;&#x17c5;" horiz-adv-x="2540" 
d="M2290 450v117q-59 -55 -81 -74q-12 -10 -12 -24q0 -13 10 -29q20 -34 52 -34q31 0 31 44zM849 732q132 -121 246 -141q109 -20 252 -20h14q-69 -125 -219 -157q-36 -7 -78 -7q-136 0 -344 75q113 94 129 250zM2268 1322q122 -78 122 -152v-970q0 -60 -60 -130t-140 -70
q-161 0 -280 154q-120 153 -120 266q0 71 250 140t250 233q0 111 -279 254q-280 143 -450 143q-141 0 -264 -45q-124 -45 -176 -145q105 33 189 33q122 0 203 -68q137 -115 137 -364q0 -235 -200 -418t-540 -183q-370 0 -555 137.5t-205 362.5q240 0 370 42.5t130 110.5
q0 58 -128 58q-19 0 -41 -1q-169 -10 -331 -60v574q0 76 144 176t188 100t157.5 -59.5t258.5 -76.5q-109 -263 -203 -263q-2 -1 -3 -1q-93 0 -163 35q-45 22 -93 22q-28 0 -56 -7q-79 -20 -139 -150q123 28 222 28q111 0 193 -35q154 -67 154 -275q0 -148 -200 -278
q19 -50 134 -85t306 -35q205 0 327.5 60t122.5 200q0 55 -102 103q-39 17 -101 17q-104 0 -277 -50v524q0 76 198 201t418 125q270 0 512 -113q10 -5 20 -9q21 243 21 278v2q0 43 -49 43q-50 0 -100 -60v5q0 196 71 274q72 80 176 80q103 0 153 -69q50 -70 50 -170
q-1 -101 -101 -222q-72 -86 -121 -217z" />
    <glyph glyph-name="uni1799_uni17C5.liga" unicode="&#x1799;&#x17c5;" horiz-adv-x="3340" 
d="M3090 450v117q-59 -55 -81 -74q-12 -10 -12 -24q0 -13 10 -29q20 -34 52 -34q31 0 31 44zM3068 1322q122 -78 122 -152v-970q0 -60 -60 -130t-140 -70q-161 0 -280 154q-120 153 -120 266q0 71 250 140t250 233q0 111 -279 254q-280 143 -490 143q-141 0 -249.5 -45
t-190.5 -145q121 33 215 33q136 0 217 -68q137 -115 137 -364q0 -235 -200 -418t-520 -183q-245 0 -431 80q-164 -80 -419 -80q-730 0 -730 830q0 670 390 670q310 0 310 -471q0 -241 -94 -339q-83 -87 -185 -87q-14 0 -29 2q-119 14 -177 106q-30 47 -30 96q0 48 28 98
q56 102 147 135q38 -59 106 -73q15 -3 27 -3q54 0 67 60q1 7 1 13q0 63 -132 91q-18 4 -37 4q-75 0 -151 -62q-95 -77 -117 -180q-3 -15 -3 -44q0 -35 5 -89q8 -100 92 -208t225.5 -158.5t396.5 -50.5q205 0 357.5 65t152.5 175q0 55 -122 103q-46 17 -113 17
q-112 0 -285 -50v574q0 76 129 176t165 100t159.5 -68t214.5 -68q-79 -273 -163 -273q-2 -1 -3 -1q-83 0 -153 35q-45 22 -91 22q-27 0 -53 -7q-74 -20 -104 -140q105 33 193 33q126 0 219 -68q157 -115 157 -364q0 -137 -68 -256q107 -25 268 -25q205 0 327.5 60t122.5 200
q0 55 -102 103q-39 17 -106 17q-114 0 -312 -50v524q0 76 218 201t438 125q270 0 512 -113q10 -5 20 -9q21 243 21 278v2q0 43 -49 43q-50 0 -100 -60v5q0 196 71 274q72 80 176 80q103 0 153 -69q50 -70 50 -170q-1 -101 -101 -222q-72 -86 -121 -217z" />
    <glyph glyph-name="uni179A_uni17C5.liga" unicode="&#x179a;&#x17c5;" horiz-adv-x="1800" 
d="M650 450v117q-59 -55 -81 -74q-12 -10 -12 -24q0 -13 10 -29q20 -34 52 -34q31 0 31 44zM1550 450v117q-59 -55 -81 -74q-12 -10 -12 -24q0 -13 10 -29q20 -34 52 -34q31 0 31 44zM1531 1331q119 -97 119 -181v-950q0 -60 -60 -130t-140 -70q-161 0 -280 154
q-120 153 -120 266q0 71 250 140t250 233q0 131 -182.5 264t-325.5 133q-161 0 -273 -49.5t-134 -49.5h-5q-82 0 -151 34q-45 22 -87 22q-24 0 -47 -7q-64 -20 -94 -140q89 28 169 28q76 0 143 -25q138 -52 187 -153v-710q-120 -140 -200 -140q-161 0 -280 154
q-120 153 -120 296q208 20 467 183h5q-28 26 -84 50q-42 17 -106 17q-109 0 -282 -50v574q0 76 129 176t165 100t150 -68q111 -67 275 -74q153 142 256 142q147 0 305 -97q19 220 19 253v2q0 43 -49 43q-50 0 -100 -60v5q0 196 71 274q72 80 176 80q103 0 153 -69
q50 -70 50 -170q-1 -101 -101 -222q-69 -83 -118 -208z" />
    <glyph glyph-name="uni179B_uni17C5.liga" unicode="&#x179b;&#x17c5;" horiz-adv-x="3070" 
d="M2820 450v117q-59 -55 -81 -74q-12 -10 -12 -24q0 -13 10 -29q20 -34 52 -34q31 0 31 44zM2798 1322q122 -78 122 -152v-970q0 -60 -60 -130t-140 -70q-161 0 -280 154q-120 153 -120 266q0 71 250 140t250 233q0 111 -279 254q-280 143 -490 143q-141 0 -249.5 -45
t-190.5 -145q121 33 215 33q136 0 217 -68q137 -115 137 -364q0 -260 -190 -430.5t-550 -170.5q-230 0 -405 103.5t-258 309.5l321 464q-81 146 -195 230q-114 83 -254 83q-141 0 -224 -53q-84 -54 -157 -116q57 14 109 14q88 0 160 -42q113 -67 113 -275q0 -118 -134 -222
q-138 -108 -138 -150q0 -10 8 -16q13 -11 27 -11q26 0 52 45q38 66 92 66q143 0 143 -160q0 -270 -275 -270t-275 280q0 90 52 177q52 86 248 159q-16 112 -126 112q-111 0 -174 -58v446q70 144 201.5 264t370.5 120t402 -109t216 -216l53 -108l-272 -464
q53 -144 160.5 -213.5t298.5 -69.5q205 0 327.5 60t122.5 200q0 55 -102 103q-39 17 -106 17q-114 0 -312 -50v524q0 76 218 201t438 125q270 0 512 -113q10 -5 20 -9q21 243 21 278v2q0 43 -49 43q-50 0 -100 -60v5q0 196 71 274q72 80 176 80q103 0 153 -69
q50 -70 50 -170q-1 -101 -101 -222q-72 -86 -121 -217z" />
    <glyph glyph-name="uni179C_uni17C5.liga" unicode="&#x179c;&#x17c5;" horiz-adv-x="2650" 
d="M2400 450v117q-59 -55 -81 -74q-12 -10 -12 -24q0 -13 10 -29q20 -34 52 -34q31 0 31 44zM2371 1303q129 -81 129 -153v-950q0 -60 -60 -130t-140 -70q-161 0 -280 154q-120 153 -120 266q0 71 250 140t250 233q0 171 -322 299t-471 128q-110 0 -254 -73t-236 -73
q-95 0 -289.5 66t-291.5 66q-89 0 -183 -60t-97 -134q0 -64 31 -64q6 0 13 2q231 100 556 100q324 0 559 -125t235 -374q0 -275 -250 -413t-550 -138t-500 112q-200 113 -200 378q0 155 100 232q100 78 330 78q150 0 275 -48.5t125 -158.5t-142 -164q-63 -24 -135 -24
q-93 0 -201 39q-119 47 -122 156q-80 0 -80 -110q0 -60 94.5 -120t295.5 -60q270 0 440 62q170 63 170 188q0 170 -212 254q-212 85 -424 85t-320.5 -30t-193.5 -80v381q82 118 273 224t363 106q129 0 332 -90t252 -90t209 90q159 90 253 90q122 0 395 -122q26 -12 49 -23
q23 264 23 301v2q0 43 -49 43q-50 0 -100 -60v5q0 196 71 274q72 80 176 80q103 0 153 -69q50 -70 50 -170q-1 -101 -101 -222q-77 -93 -128 -236z" />
    <glyph glyph-name="uni179D_uni17C5.liga" unicode="&#x179d;&#x17c5;" horiz-adv-x="2650" 
d="M2400 450v117q-59 -55 -81 -74q-12 -10 -12 -24q0 -13 10 -29q20 -34 52 -34q31 0 31 44zM1550 499q-31 -4 -65 -4h-14l-2 -2q-12 -10 -12 -24q0 -13 10 -29q20 -34 52 -34q31 0 31 44v49zM1650 522v-382q-120 -140 -200 -140q-161 0 -280 154q-120 153 -120 296
q112 11 239 63q-36 6 -74 14q56 62 79 140q-311 43 -498 43q-251 0 -398.5 -80t-147.5 -160q0 -130 149 -148q53 145 151.5 211.5t198.5 66.5q120 0 192 -77q47 -51 47 -111q0 -31 -12 -64q-37 -98 -102 -98q-66 0 -106 44q-40 43 -99 43h-1q-61 -1 -79 -58q-3 -14 -3 -28
q0 -62 67 -114q-64 -137 -215 -137q-148 0 -218 83t-70 216v431q85 167 251.5 248.5t443.5 81.5t805 -80v-294q86 3 188 19q-50 -131 -188 -183zM2371 1303q129 -81 129 -153v-950q0 -60 -60 -130t-140 -70q-161 0 -280 154q-120 153 -120 266q0 71 250 140t250 233
q0 171 -342 309t-451 138q-110 0 -254 -83t-236 -83q-95 0 -305.5 89t-267.5 89q-59 0 -196 -55q129 -4 227 -126l-166 -64q-93 50 -204 50q-27 0 -55 -3v206q464 240 636 240q129 0 332 -90t252 -90t209 90q159 90 253 90q122 0 395 -122q26 -12 49 -23q23 264 23 301v2
q0 43 -49 43q-50 0 -100 -60v5q0 196 71 274q72 80 176 80q103 0 153 -69q50 -70 50 -170q-1 -101 -101 -222q-77 -93 -128 -236z" />
    <glyph glyph-name="uni179E_uni17C5.liga" unicode="&#x179e;&#x17c5;" horiz-adv-x="2650" 
d="M2400 450v117q-59 -55 -81 -74q-12 -10 -12 -24q0 -13 10 -29q20 -34 52 -34q31 0 31 44zM2371 1303q129 -81 129 -153v-950q0 -60 -60 -130t-140 -70q-161 0 -280 154q-120 153 -120 266q0 71 250 140t250 233q0 171 -322 299t-471 128q-110 0 -254 -73t-236 -73
q-95 0 -289.5 66t-291.5 66q-89 0 -183 -60t-97 -114q111 26 201 26q118 0 199 -45q154 -87 154 -295q0 -148 -200 -278q19 -50 134 -85t306 -35q205 0 328 89q31 22 54 49q-102 18 -232 65q50 42 81 95l-6 4q-51 26 -79 74.5t-28 100.5q0 53 29 102t89 75t184 26
q180 0 180 -350v-29q79 -9 172 -9h19q-62 -113 -191 -150v-362q0 -200 -140 -200t-140 72q0 71 65 114q51 33 62 144q-22 -24 -47 -47q-200 -183 -540 -183q-370 0 -555 137.5t-205 362.5q240 0 370 52.5t130 120.5q0 58 -128 58q-19 0 -41 -1q-169 -10 -331 -80v520
q82 118 273 224t363 106q129 0 332 -90t252 -90t209 90q159 90 253 90q122 0 395 -122q26 -12 49 -23q23 264 23 301v2q0 43 -49 43q-50 0 -100 -60v5q0 196 71 274q72 80 176 80q103 0 153 -69q50 -70 50 -170q-1 -101 -101 -222q-77 -93 -128 -236z" />
    <glyph glyph-name="uni179F_uni17C5.liga" unicode="&#x179f;&#x17c5;" horiz-adv-x="3070" 
d="M2820 450v117q-59 -55 -81 -74q-12 -10 -12 -24q0 -13 10 -29q20 -34 52 -34q31 0 31 44zM2798 1322q122 -78 122 -152v-970q0 -60 -60 -130t-140 -70q-161 0 -280 154q-120 153 -120 266q0 71 250 140t250 233q0 111 -279 254q-280 143 -490 143q-141 0 -249.5 -45
t-190.5 -145q121 33 215 33q136 0 217 -68q137 -115 137 -364q0 -260 -190 -430.5t-510 -170.5q-230 0 -395 104q-123 76 -123 138q0 21 15 41l186 223q-75 124 -205.5 185t-270.5 61q-387 0 -387 -242q0 -220 198 -220q197 0 218 73q5 19 5 33q0 31 -28 31q-5 0 -11 -1
q-33 -76 -172 -76q-140 0 -140 165t224 165q221 0 221 -273v-7q-3 -400 -314 -400q-145 0 -248 128.5t-103 305.5q0 397 240 543q-137 118 -228 118h-5q86 205 242 305t199 100q44 0 193 -68t259 -68q-85 -263 -197 -263q-2 -1 -3 -1q-111 0 -200 40q-91 40 -150 46
q-6 1 -13 1q-52 0 -102 -45q63 -15 141 -107q99 27 224 27q239 0 399.5 -75t266.5 -290l-152 -233q53 -144 316 -144q205 0 327.5 60t122.5 200q0 55 -102 103q-39 17 -106 17q-114 0 -312 -50v524q0 76 218 201t438 125q270 0 512 -113q10 -5 20 -9q21 243 21 278v2
q0 43 -49 43q-50 0 -100 -60v5q0 196 71 274q72 80 176 80q103 0 153 -69q50 -70 50 -170q-1 -101 -101 -222q-72 -86 -121 -217z" />
    <glyph glyph-name="uni17A0_uni17C5.liga" unicode="&#x17a0;&#x17c5;" horiz-adv-x="3393" 
d="M2290 450v117q-59 -55 -81 -74q-12 -10 -12 -24q0 -13 10 -29q20 -34 52 -34q31 0 31 44zM3143 450v117q-59 -55 -81 -74q-12 -10 -12 -24q0 -13 10 -29q20 -34 52 -34q31 0 31 44zM3124 1331q119 -97 119 -181v-950q0 -60 -60 -130t-140 -70q-161 0 -280 154
q-120 153 -120 266q0 71 250 140t250 233q0 131 -182.5 239t-325.5 108q-98 0 -245 -107v-833q0 -60 -60 -130t-140 -70q-161 0 -280 154q-120 153 -120 266q0 71 250 140t250 233q0 111 -279 254q-280 143 -450 143q-141 0 -264 -45q-124 -45 -176 -145q105 33 189 33
q122 0 203 -68q137 -115 137 -364q0 -235 -200 -418t-540 -183q-370 0 -555 137.5t-205 362.5q240 0 370 42.5t130 110.5q0 58 -128 58q-19 0 -41 -1q-169 -10 -331 -60v574q0 76 144 176t188 100t157.5 -59.5t258.5 -76.5q-109 -263 -203 -263q-2 -1 -3 -1q-93 0 -163 35
q-45 22 -93 22q-28 0 -56 -7q-79 -20 -139 -150q123 28 222 28q111 0 193 -35q154 -67 154 -275q0 -148 -200 -278q19 -50 134 -85t306 -35q205 0 327.5 60t122.5 200q0 55 -102 103q-39 17 -101 17q-104 0 -277 -50v524q0 76 198 201t418 125q270 0 512 -113
q227 -106 241 -204q36 84 98 160q126 157 231 157q147 0 305 -97q19 220 19 253v2q0 43 -49 43q-50 0 -100 -60v5q0 196 71 274q72 80 176 80q103 0 153 -69q50 -70 50 -170q-1 -101 -101 -222q-69 -83 -118 -208z" />
    <glyph glyph-name="uni17A1_uni17C5.liga" unicode="&#x17a1;&#x17c5;" horiz-adv-x="3290" 
d="M3040 450v117q-59 -55 -81 -74q-12 -10 -12 -24q0 -13 10 -29q20 -34 52 -34q31 0 31 44zM724 330q85 0 240.5 145t355.5 145q125 0 227.5 -88.5t102.5 -212.5t-87.5 -221.5t-212.5 -97.5t-188 50q-62 50 -62 150t50 120q50 50 150 50q0 -50 50 -50t50 45q0 65 -150 65
q-130 0 -245 -215t-385 -215q-180 0 -325 118q-145 117 -145 250v132h100q190 0 295 42.5t105 110.5q0 58 -128 58q-19 0 -41 -1q-169 -10 -331 -60v466q90 144 284.5 264t514.5 120q291 0 496 -155t205 -337q0 -102 -99 -215t-287 -113q-304 0 -304 205t191 205h4
q127 0 176 -69q-1 -7 -1 -14q0 -63 82 -65h6q83 0 83 53q0 67 -162 131t-386 64q-291 0 -424.5 -53.5t-226.5 -115.5q73 14 140 14q116 0 214 -42q154 -67 154 -275q0 -178 -219 -323q58 -65 133 -65zM3018 1322q122 -78 122 -152v-970q0 -60 -60 -130t-140 -70
q-161 0 -280 154q-120 153 -120 266q0 71 250 140t250 233q0 111 -279 254q-279 142 -430 142h-7q-148 0 -261 -44q-118 -45 -162 -145q89 28 169 28q76 0 143 -25q138 -52 187 -153v-1250q0 -300 -300 -300q-200 0 -300 150q-100 -150 -300 -150q-350 0 -350 260
q160 0 206 55q44 54 44 79v1q0 25 -50 25t-50 -70q-150 0 -150 100q0 150 175 150t175 -150q0 -100 -50 -190q0 -40 100 -40q160 0 250 140q100 -140 270 -140q180 0 180 130v958q-6 51 -130 79q-37 8 -81 8q-102 0 -239 -45v524q0 76 188 201t398 125q270 0 512 -113
q10 -5 20 -9q21 243 21 278v2q0 43 -49 43q-50 0 -100 -60v5q0 196 71 274q72 80 176 80q103 0 153 -69q50 -70 50 -170q-1 -101 -101 -222q-72 -86 -121 -217z" />
    <glyph glyph-name="uni17A2_uni17C5.liga" unicode="&#x17a2;&#x17c5;" horiz-adv-x="2540" 
d="M650 450v117q-59 -55 -81 -74q-12 -10 -12 -24q0 -13 10 -29q20 -34 52 -34q31 0 31 44zM2290 450v117q-59 -55 -81 -74q-12 -10 -12 -24q0 -13 10 -29q20 -34 52 -34q31 0 31 44zM1550 450v117q-59 -55 -81 -74q-12 -10 -12 -24q0 -13 10 -29q20 -34 52 -34q31 0 31 44z
M750 140q-120 -140 -200 -140q-161 0 -280 154q-120 153 -120 296q208 20 467 183h5q-28 26 -84 50q-42 17 -106 17q-109 0 -282 -50v574q0 76 129 176t165 100t149.5 -68t206.5 -68q-81 -273 -165 -273q-2 -1 -3 -1q-83 0 -153 35q-45 22 -87 22q-24 0 -47 -7
q-64 -20 -94 -140q89 28 169 28q76 0 143 -25q138 -52 187 -153v-710zM2268 1322q122 -78 122 -152v-970q0 -60 -60 -130t-140 -70q-161 0 -280 154q-120 153 -120 266q0 71 250 140t250 233q0 111 -279 254q-279 142 -430 142h-7q-148 0 -261 -44q-118 -45 -162 -145
q89 28 169 28q76 0 143 -25q138 -52 187 -153v-710q-120 -140 -200 -140q-161 0 -280 154q-120 153 -120 296q208 20 472 183q-28 26 -84 50q-42 17 -106 17q-109 0 -282 -50v524q0 76 188 201t398 125q270 0 512 -113q10 -5 20 -9q21 243 21 278v2q0 43 -49 43
q-50 0 -100 -60v5q0 196 71 274q72 80 176 80q103 0 153 -69q50 -70 50 -170q-1 -101 -101 -222q-72 -86 -121 -217zM808 707q113 -76 199 -76q6 0 12 1q90 5 204 39q-30 -127 -137 -188q-70 -39 -190 -39q-63 0 -140 11q55 87 55 198q0 27 -3 54z" />
    <glyph glyph-name=".notdef" horiz-adv-x="1536" 
d="M256 0v1280h1024v-1280h-1024zM288 32h960v1216h-960v-1216z" />
    <glyph glyph-name=".null" 
 />
    <glyph glyph-name="glyph2" horiz-adv-x="569" 
 />
    <glyph glyph-name="space" unicode=" " horiz-adv-x="569" 
 />
    <glyph glyph-name="space" unicode="&#xa0;" horiz-adv-x="569" 
 />
    <glyph glyph-name="exclam" unicode="!" horiz-adv-x="872" 
d="M612 1493v-692l-40 -457h-70l-40 457v692h150zM622 213v-213h-172v213h172z" />
    <glyph glyph-name="quotedbl" unicode="&#x22;" horiz-adv-x="727" 
d="M106 1452h190v-227l-55 -275h-80l-55 275v227zM434 1452h190v-227l-55 -275h-80l-55 275v227z" />
    <glyph glyph-name="numbersign" unicode="#" horiz-adv-x="1138" 
d="M993 1427l-74 -401h190v-139h-217l-63 -357h215v-139h-240l-80 -431h-155l77 431h-253l-80 -431h-156l78 431h-207v139h233l64 357h-221v139h248l73 401h156l-74 -401h256l72 401h158zM737 887h-254l-66 -357h256z" />
    <glyph glyph-name="dollar" unicode="$" horiz-adv-x="1138" 
d="M501 1577h121v-111q258 -18 354 -209q39 -77 43 -174v-20h-161q-2 158 -119 227q-41 23 -90 31q-13 2 -27 2v-510q205 -63 268 -98q174 -99 174 -316q0 -213 -139 -338q-22 -20 -49 -36q-100 -59 -254 -72v-211h-121v211q-315 21 -403 260q-28 80 -28 177q0 18 1 36h162
q14 -152 43 -201q4 -6 8 -14q72 -98 217 -117v557q-190 58 -258 107q-145 104 -145 299q0 299 286 385q54 16 117 24v111zM501 829v492q-196 -27 -231 -182q-6 -29 -6 -62q0 -184 237 -248zM622 633v-539q125 15 188 76q86 82 86 205q0 125 -96 186q-59 37 -178 72z" />
    <glyph glyph-name="percent" unicode="%" horiz-adv-x="1820" 
d="M407 1403q172 0 277 -135l37 -58q36 -75 36 -161q0 -162 -129 -267q-96 -80 -219 -80q-166 0 -272 129q-78 99 -78 222q0 166 129 272q96 78 219 78zM407 1260q-110 0 -172 -95l-24 -47q-11 -33 -11 -65q0 -109 92 -172q54 -35 117 -35q111 0 172 92q35 51 35 113
q0 116 -98 178q-49 31 -111 31zM1247 1452h135l-809 -1492h-135zM1409 659q174 0 278 -135q72 -94 72 -217q0 -162 -129 -266q-96 -79 -219 -79q-166 0 -273 128q-78 98 -78 221q0 166 132 271q96 77 217 77zM1409 516q-111 0 -172 -92q-35 -51 -35 -113q0 -112 96 -174
q51 -33 113 -33q110 0 172 93q35 51 35 110q0 117 -99 178l-47 21q-31 10 -63 10z" />
    <glyph glyph-name="ampersand" unicode="&#x26;" horiz-adv-x="1366" 
d="M1009 684h164q0 -192 -119 -375l250 -309h-223l-127 160q-100 -99 -158 -133q-115 -74 -270 -74q-238 0 -352 168q-68 100 -68 239q0 166 106 275q74 74 226 162q-144 180 -162 278q-4 27 -4 55q0 158 133 254q94 68 217 68q184 0 279 -135l30 -57q19 -43 23 -93
q2 -18 2 -37q0 -141 -113 -241q-59 -53 -170 -115l273 -334q63 112 63 236v8zM583 883q166 104 197 180q14 31 14 72q0 106 -92 153q-39 21 -86 21q-123 0 -164 -103q-12 -32 -12 -73q0 -68 51 -140zM856 281l-328 409q-193 -123 -234 -225q-16 -41 -16 -90q0 -133 111 -211
q71 -51 157 -51q138 0 277 133q16 16 33 35z" />
    <glyph glyph-name="quotesingle" unicode="'" horiz-adv-x="391" 
d="M98 1452h193v-227l-56 -275h-82l-55 275v227z" />
    <glyph glyph-name="parenleft" unicode="(" horiz-adv-x="1146" 
d="M584 1493h112q-253 -410 -278 -879q-2 -43 -2 -84q0 -477 250 -912q14 -27 30 -52h-112q-232 303 -307 696q-27 139 -27 268q0 367 190 734q64 125 144 229z" />
    <glyph glyph-name="parenright" unicode=")" horiz-adv-x="1146" 
d="M563 -434h-113q254 410 279 878q2 43 2 84q0 478 -250 914q-15 26 -31 51h113q231 -303 307 -696q26 -140 26 -269q0 -366 -190 -732q-63 -125 -143 -230z" />
    <glyph glyph-name="asterisk" unicode="*" horiz-adv-x="1321" 
d="M696 1493h129l-10 -229l217 77l39 -120l-222 -62l144 -182l-105 -74l-127 191l-129 -191l-102 74l141 182l-221 62l39 120l217 -77z" />
    <glyph glyph-name="plus" unicode="+" horiz-adv-x="1196" 
d="M1093 547v-144h-424v-423h-143v423h-424v144h424v424h143v-424h424z" />
    <glyph glyph-name="comma" unicode="," horiz-adv-x="569" 
d="M178 213h215v-245q0 -269 -215 -269v78q88 4 109 68q14 39 14 119v36h-123v213z" />
    <glyph glyph-name="hyphen" unicode="-" horiz-adv-x="681" 
d="M581 639v-147h-487v147h487z" />
    <glyph glyph-name="hyphen" unicode="&#xad;" horiz-adv-x="681" 
d="M581 639v-147h-487v147h487z" />
    <glyph glyph-name="period" unicode="." horiz-adv-x="569" 
d="M391 213v-213h-213v213h213z" />
    <glyph glyph-name="slash" unicode="/" horiz-adv-x="569" 
d="M469 1493h113l-485 -1533h-113z" />
    <glyph glyph-name="zero" unicode="0" horiz-adv-x="1166" 
d="M583 1500q495 0 495 -750t-495 -750t-495 750t495 750zM583 1350q-345 0 -345 -600t345 -600t345 600t-345 600z" />
    <glyph glyph-name="one" unicode="1" horiz-adv-x="952" 
d="M431 1172h-205v95q212 0 242 233h113v-1350h205v-150h-560v150h205v1022z" />
    <glyph glyph-name="two" unicode="2" horiz-adv-x="1129" 
d="M889 1053q0 297 -315 297t-315 -297h-150q0 447 465 447t465 -447q0 -312 -382 -476l-191 -83q-207 -85 -207 -344h780v-150h-930v150q0 358 307 489l191 82q282 122 282 332z" />
    <glyph glyph-name="three" unicode="3" horiz-adv-x="1143" 
d="M562 861q285 0 285 245q0 244 -285 244t-285 -244h-150q0 394 435 394t435 -392q0 -220 -136 -317q166 -103 166 -360q0 -431 -465 -431t-465 433h150q0 -283 315 -283t315 283q0 282 -315 282h-78v146h78z" />
    <glyph glyph-name="four" unicode="4" horiz-adv-x="1091" 
d="M698 1231l-477 -712h477v712zM698 1500h150v-981h192v-150h-192v-369h-150v369h-658v150z" />
    <glyph glyph-name="five" unicode="5" horiz-adv-x="1146" 
d="M1039 500q0 -500 -437 -500q-428 0 -478 397h150q50 -247 328 -247q287 0 287 350t-277 350q-202 0 -288 -128h-145l70 778h720v-178h-585l-37 -373q107 51 265 51q427 0 427 -500z" />
    <glyph glyph-name="six" unicode="6" horiz-adv-x="1082" 
d="M243 573q43 -423 307 -423q315 0 315 325t-315 325q-263 0 -307 -227zM550 0q-465 0 -465 750t515 750q415 0 415 -352h-150q0 202 -265 202q-328 0 -361 -486q113 86 311 86q465 0 465 -475t-465 -475z" />
    <glyph glyph-name="seven" unicode="7" horiz-adv-x="1103" 
d="M1029 1350l-533 -1350h-161l534 1350h-770v150h930v-150z" />
    <glyph glyph-name="eight" unicode="8" horiz-adv-x="1078" 
d="M539 1350q-285 0 -285 -250t285 -250t285 250t-285 250zM539 700q-315 0 -315 -275t315 -275t315 275t-315 275zM237 780q-133 98 -133 320q0 400 435 400t435 -400q0 -222 -133 -320q163 -103 163 -355q0 -425 -465 -425t-465 425q0 252 163 355z" />
    <glyph glyph-name="nine" unicode="9" horiz-adv-x="1082" 
d="M839 927q-43 423 -307 423q-315 0 -315 -325t315 -325q263 0 307 227zM532 1500q465 0 465 -750t-515 -750q-415 0 -415 352h150q0 -202 265 -202q328 0 361 486q-113 -86 -311 -86q-465 0 -465 475t465 475z" />
    <glyph glyph-name="colon" unicode=":" horiz-adv-x="569" 
d="M438 213v-213h-213v213h213zM438 1073v-213h-213v213h213z" />
    <glyph glyph-name="semicolon" unicode=";" horiz-adv-x="569" 
d="M440 1073v-213h-213v213h213zM225 213h215v-245q0 -269 -215 -269v78q88 4 109 68q14 39 14 119v36h-123v213z" />
    <glyph glyph-name="semicolon" unicode="&#x37e;" horiz-adv-x="569" 
d="M440 1073v-213h-213v213h213zM225 213h215v-245q0 -269 -215 -269v78q88 4 109 68q14 39 14 119v36h-123v213z" />
    <glyph glyph-name="less" unicode="&#x3c;" horiz-adv-x="1196" 
d="M92 406v141l1001 424v-162l-806 -330l806 -336v-161z" />
    <glyph glyph-name="equal" unicode="=" horiz-adv-x="1196" 
d="M1093 723v-143h-991v143h991zM1093 371v-144h-991v144h991z" />
    <glyph glyph-name="greater" unicode="&#x3e;" horiz-adv-x="1196" 
d="M1103 547v-141l-1001 -424v161l807 330l-807 336v162z" />
    <glyph glyph-name="question" unicode="?" horiz-adv-x="1585" 
d="M968 408h-184v112q0 103 57 178q35 45 107 113q14 12 49 43q151 135 153 270q0 144 -125 205l-63 21q-35 8 -74 8q-168 0 -229 -119q-35 -70 -35 -201h-174q0 216 92 335q93 119 277 140q39 5 80 5q258 0 372 -170l33 -62q31 -74 31 -162q0 -143 -105 -264
q-39 -47 -100 -102q-129 -119 -150 -174q-12 -31 -12 -80v-96zM968 213v-213h-184v213h184z" />
    <glyph glyph-name="at" unicode="@" horiz-adv-x="2078" 
d="M1361 1026h170l-184 -573q-25 -72 -25 -103q0 -55 60 -82q20 -8 43 -8q131 0 239 148q105 145 105 323q0 246 -199 428q-203 189 -491 201h-31q-301 0 -533 -209l-69 -70q-203 -231 -203 -522q0 -289 215 -487q221 -205 553 -205q162 0 395 66l58 -137q-230 -86 -463 -86
q-369 0 -637 219q-250 204 -289 505q-6 47 -6 94q0 316 195 582q57 80 129 143q221 201 530 252q76 13 152 13q340 0 591 -207q238 -193 275 -469q6 -43 6 -86q0 -248 -176 -457q-156 -182 -381 -182q-197 0 -225 157q-135 -147 -291 -147q-168 0 -264 141q-70 101 -70 234
q0 223 162 395q158 170 364 172q172 0 250 -178zM1054 938q-135 0 -237 -145q-93 -129 -93 -293q0 -138 97 -207q49 -35 106 -35q119 0 209 133q68 98 100 271q9 45 11 79v14q0 101 -84 154q-50 29 -109 29z" />
    <glyph glyph-name="uni1780" unicode="&#x1780;" horiz-adv-x="1800" 
d="M1519 406q31 0 31 44v117q-59 -55 -81 -74q-12 -10 -12 -24q0 -13 10 -29q20 -34 52 -34zM434 1000h16q75 0 147 -29q70 -28 110 -80q237 209 389 209q186 0 554 -120v-840q-120 -140 -200 -140q-161 0 -280 154q-120 153 -120 296q208 20 467 183q-311 117 -461 117
q-162 0 -306 -73v-477q0 -200 -300 -200t-300 300v150q94 -50 209 -50q114 0 203 58q74 48 86 146q-22 -14 -48 -24q-72 -30 -150 -30q-300 0 -300 225q0 198 233 222q-112 60 -198 60q-18 0 -35 -3v206q315 240 404 240q88 0 226 -90q137 -90 184 -90t155 90t172 90
q63 0 202 -75t257 -75q-108 -250 -235 -250q-107 0 -245 60q-139 60 -179 60q-41 0 -138 -83q-98 -83 -161 -83q-64 0 -200 89t-175 89q-40 0 -110 -38q104 -8 200 -92z" />
    <glyph glyph-name="uni1781" unicode="&#x1781;" horiz-adv-x="1800" 
d="M150 1040q0 460 750 460t750 -491q0 -244 -262.5 -380.5t-787.5 -164.5q60 -164 424 -164t626 358q0 -658 -750 -658t-750 601q436 2 768 79t332 269q0 251 -450 251t-450 -180q0 -77 36 -121v9q0 49 36.5 94t101.5 69.5t134 24.5q68 0 133 -24.5t102 -69.5t37 -94
t-36 -93.5t-100.5 -69.5t-135.5 -25q-508 0 -508 320z" />
    </font>
</defs>
</svg>
